<svg width="1592" height="721" viewBox="0 0 1592 721" fill="none" xmlns="http://www.w3.org/2000/svg">
<ellipse cx="346.729" cy="113.331" rx="2.29148" ry="2.28514" fill="#C3D0E4"/>
<ellipse cx="948.014" cy="19.1831" rx="2.29148" ry="2.28514" fill="#C3D0E4"/>
<ellipse cx="1038.3" cy="88.6516" rx="2.74977" ry="2.28514" fill="#C3D0E4"/>
<ellipse cx="1289.9" cy="66.2571" rx="2.29148" ry="2.74216" fill="#C3D0E4"/>
<ellipse cx="1504.39" cy="54.8315" rx="2.29148" ry="2.28514" fill="#C3D0E4"/>
<ellipse cx="1091.92" cy="198.338" rx="2.29148" ry="2.28514" fill="#C3D0E4"/>
<ellipse cx="1343.52" cy="175.944" rx="2.74977" ry="2.74216" fill="#C3D0E4"/>
<ellipse cx="1558.46" cy="164.518" rx="2.29148" ry="2.28514" fill="#C3D0E4"/>
<ellipse cx="1122.62" cy="287.001" rx="2.74977" ry="2.28514" fill="#C3D0E4"/>
<ellipse cx="1374.23" cy="264.607" rx="2.29148" ry="2.74216" fill="#C3D0E4"/>
<ellipse cx="1588.71" cy="253.182" rx="2.29148" ry="2.28514" fill="#C3D0E4"/>
<ellipse cx="1122.62" cy="372.009" rx="2.74977" ry="2.28514" fill="#C3D0E4"/>
<ellipse cx="1374.23" cy="349.614" rx="2.29148" ry="2.74216" fill="#C3D0E4"/>
<ellipse cx="1588.71" cy="338.188" rx="2.29148" ry="2.28514" fill="#C3D0E4"/>
<ellipse cx="1106.12" cy="480.781" rx="2.74977" ry="2.28514" fill="#C3D0E4"/>
<ellipse cx="1357.73" cy="458.844" rx="2.29148" ry="2.28514" fill="#C3D0E4"/>
<ellipse cx="1572.21" cy="446.961" rx="2.29148" ry="2.28514" fill="#C3D0E4"/>
<ellipse cx="1080.46" cy="574.015" rx="2.74977" ry="2.28514" fill="#C3D0E4"/>
<ellipse cx="1332.06" cy="552.078" rx="2.29148" ry="2.28514" fill="#C3D0E4"/>
<ellipse cx="1546.55" cy="540.195" rx="2.29148" ry="2.28514" fill="#C3D0E4"/>
<ellipse cx="1019.96" cy="647.139" rx="2.74977" ry="2.28514" fill="#C3D0E4"/>
<ellipse cx="1271.57" cy="624.744" rx="2.29148" ry="2.74216" fill="#C3D0E4"/>
<ellipse cx="1486.05" cy="612.862" rx="2.29148" ry="2.74216" fill="#C3D0E4"/>
<ellipse cx="886.6" cy="716.15" rx="2.29148" ry="2.74216" fill="#C3D0E4"/>
<ellipse cx="1138.21" cy="693.756" rx="2.74977" ry="2.28514" fill="#C3D0E4"/>
<ellipse cx="1352.69" cy="682.33" rx="2.74977" ry="2.74216" fill="#C3D0E4"/>
<ellipse cx="398.975" cy="701.525" rx="2.29148" ry="2.74216" fill="#C3D0E4"/>
<ellipse cx="613.459" cy="690.1" rx="2.29148" ry="2.28514" fill="#C3D0E4"/>
<ellipse cx="24.5506" cy="685.529" rx="2.74977" ry="2.28514" fill="#C3D0E4"/>
<ellipse cx="276.151" cy="663.592" rx="2.29148" ry="2.28514" fill="#C3D0E4"/>
<ellipse cx="490.635" cy="651.709" rx="2.29148" ry="2.28514" fill="#C3D0E4"/>
<ellipse cx="184.495" cy="616.518" rx="2.29148" ry="2.74216" fill="#C3D0E4"/>
<ellipse cx="398.975" cy="604.636" rx="2.29148" ry="2.74216" fill="#C3D0E4"/>
<ellipse cx="146.913" cy="518.257" rx="2.29148" ry="2.28514" fill="#C3D0E4"/>
<ellipse cx="361.397" cy="506.375" rx="2.29148" ry="2.28514" fill="#C3D0E4"/>
<ellipse cx="1054.8" cy="54.8315" rx="2.74977" ry="2.28514" fill="#C3D0E4"/>
<ellipse cx="293.569" cy="47.0622" rx="2.29148" ry="2.74216" fill="#C3D0E4"/>
<ellipse cx="270.195" cy="28.324" rx="2.74977" ry="2.28514" fill="#C3D0E4"/>
<ellipse cx="126.289" cy="-0.925557" rx="2.74977" ry="2.28514" fill="#C3D0E4"/>
<ellipse cx="1167.99" cy="5.92966" rx="2.29148" ry="2.74216" fill="#C3D0E4"/>
<ellipse cx="1096.96" cy="164.518" rx="2.74977" ry="2.28514" fill="#C3D0E4"/>
<ellipse cx="1141.41" cy="246.326" rx="2.29148" ry="2.74216" fill="#C3D0E4"/>
<ellipse cx="1163.41" cy="307.568" rx="2.29148" ry="2.74216" fill="#C3D0E4"/>
<ellipse cx="1178.08" cy="389.375" rx="2.29148" ry="2.28514" fill="#C3D0E4"/>
<ellipse cx="1158.37" cy="484.894" rx="2.74977" ry="2.74216" fill="#C3D0E4"/>
<ellipse cx="1382.48" cy="49.8042" rx="2.29148" ry="2.74216" fill="#C3D0E4"/>
<ellipse cx="1184.49" cy="181.885" rx="2.29148" ry="2.28514" fill="#C3D0E4"/>
<ellipse cx="1436.56" cy="159.491" rx="2.29148" ry="2.74216" fill="#C3D0E4"/>
<ellipse cx="1215.2" cy="270.092" rx="2.74977" ry="2.74216" fill="#C3D0E4"/>
<ellipse cx="1467.26" cy="248.154" rx="2.74977" ry="2.74216" fill="#C3D0E4"/>
<ellipse cx="1215.2" cy="355.555" rx="2.74977" ry="2.28514" fill="#C3D0E4"/>
<ellipse cx="1467.26" cy="333.161" rx="2.74977" ry="2.74216" fill="#C3D0E4"/>
<ellipse cx="1198.7" cy="464.328" rx="2.74977" ry="2.28514" fill="#C3D0E4"/>
<ellipse cx="1450.3" cy="441.934" rx="2.29148" ry="2.74216" fill="#C3D0E4"/>
<ellipse cx="1189.53" cy="148.065" rx="2.74977" ry="2.28514" fill="#C3D0E4"/>
<ellipse cx="1234.45" cy="229.873" rx="2.74977" ry="2.74216" fill="#C3D0E4"/>
<ellipse cx="1255.99" cy="291.115" rx="2.29148" ry="2.74216" fill="#C3D0E4"/>
<ellipse cx="1270.65" cy="372.923" rx="2.29148" ry="2.28514" fill="#C3D0E4"/>
<ellipse cx="1250.95" cy="468.441" rx="2.74977" ry="2.74216" fill="#C3D0E4"/>
<ellipse rx="2.48336" ry="2.47896" transform="matrix(0.905847 -0.423604 0.425532 0.904943 1098.53 2.12398)" fill="#C3D0E4"/>
<ellipse rx="2.48336" ry="2.47896" transform="matrix(0.905847 -0.423604 0.425532 0.904943 1163.91 69.1616)" fill="#C3D0E4"/>
<ellipse rx="2.48336" ry="2.47896" transform="matrix(0.905847 -0.423604 0.425532 0.904943 1200.12 146.182)" fill="#C3D0E4"/>
<ellipse rx="2.48336" ry="2.47896" transform="matrix(0.905847 -0.423604 0.425532 0.904943 1418.58 19.394)" fill="#C3D0E4"/>
<ellipse rx="2.48336" ry="2.47896" transform="matrix(0.905847 -0.423604 0.425532 0.904943 1231.54 251.901)" fill="#C3D0E4"/>
<ellipse rx="2.48336" ry="2.47896" transform="matrix(0.905847 -0.423604 0.425532 0.904943 1450 125.113)" fill="#C3D0E4"/>
<ellipse rx="2.48308" ry="2.47924" transform="matrix(0.883392 -0.468635 0.470663 0.882313 433.802 36.7316)" fill="#C3D0E4"/>
<ellipse rx="2.48308" ry="2.47924" transform="matrix(0.883392 -0.468635 0.470663 0.882313 408.411 -0.315061)" fill="#C3D0E4"/>
<ellipse rx="2.48308" ry="2.47924" transform="matrix(0.883392 -0.468635 0.470663 0.882313 420.439 50.3695)" fill="#C3D0E4"/>
<ellipse rx="2.48132" ry="2.481" transform="matrix(0.724083 -0.689712 0.691713 0.722172 338.79 8.00756)" fill="#C3D0E4"/>
<ellipse cx="373.311" cy="35.6367" rx="2.29148" ry="2.28514" fill="#C3D0E4"/>
<ellipse cx="354.061" cy="86.8232" rx="2.29148" ry="2.28514" fill="#C3D0E4"/>
<ellipse cx="450.761" cy="122.471" rx="2.74977" ry="2.28514" fill="#C3D0E4"/>
<ellipse cx="493.844" cy="58.4878" rx="2.74977" ry="2.28514" fill="#C3D0E4"/>
<ellipse cx="503.926" cy="23.7536" rx="2.74977" ry="2.28514" fill="#C3D0E4"/>
<ellipse cx="485.135" cy="9.12864" rx="2.29148" ry="2.28514" fill="#C3D0E4"/>
<ellipse rx="2.48308" ry="2.47924" transform="matrix(0.883392 -0.468635 0.470663 0.882313 460.899 58.473)" fill="#C3D0E4"/>
<ellipse rx="2.48308" ry="2.47924" transform="matrix(0.883392 -0.468635 0.470663 0.882313 542.528 33.8795)" fill="#C3D0E4"/>
<ellipse rx="2.48336" ry="2.47896" transform="matrix(0.905847 -0.423604 0.425532 0.904943 1163.92 24.456)" fill="#C3D0E4"/>
<ellipse cx="998.883" cy="3.64427" rx="2.74977" ry="2.28514" fill="#C3D0E4"/>
<ellipse cx="1017.67" cy="-0.925557" rx="2.29148" ry="2.28514" fill="#C3D0E4"/>
<ellipse cx="1159.29" cy="10.5" rx="2.74977" ry="2.74216" fill="#C3D0E4"/>
<ellipse cx="1006.22" cy="74.0266" rx="2.74977" ry="2.28514" fill="#C3D0E4"/>
<ellipse cx="1257.82" cy="51.6325" rx="2.29148" ry="2.74216" fill="#C3D0E4"/>
<ellipse cx="1113" cy="109.675" rx="2.29148" ry="2.28514" fill="#C3D0E4"/>
<ellipse cx="1226.66" cy="60.7727" rx="2.29148" ry="2.74216" fill="#C3D0E4"/>
<ellipse cx="991.092" cy="49.3471" rx="2.29148" ry="2.28514" fill="#C3D0E4"/>
<ellipse rx="2.48336" ry="2.47896" transform="matrix(0.905847 -0.423604 0.425532 0.904943 1156.96 57.0063)" fill="#C3D0E4"/>
<ellipse rx="2.48336" ry="2.47896" transform="matrix(0.905847 -0.423604 0.425532 0.904943 1147.04 24.2439)" fill="#C3D0E4"/>
<ellipse rx="2.48336" ry="2.47896" transform="matrix(0.905847 -0.423604 0.425532 0.904943 1222.34 79.3386)" fill="#C3D0E4"/>
<ellipse cx="1099.25" cy="97.3349" rx="2.29148" ry="2.74216" fill="#C3D0E4"/>
<ellipse cx="1094.21" cy="52.5466" rx="2.74977" ry="2.74216" fill="#C3D0E4"/>
<ellipse cx="1047.92" cy="56.6599" rx="2.29148" ry="2.28514" fill="#C3D0E4"/>
<ellipse cx="1262.4" cy="45.2339" rx="2.29148" ry="2.74216" fill="#C3D0E4"/>
<ellipse cx="1118.04" cy="92.3081" rx="2.74977" ry="2.28514" fill="#C3D0E4"/>
<ellipse cx="1332.52" cy="80.8821" rx="2.74977" ry="2.74216" fill="#C3D0E4"/>
<ellipse cx="1259.65" cy="103.734" rx="2.29148" ry="2.74216" fill="#C3D0E4"/>
<ellipse cx="1106.58" cy="167.26" rx="2.29148" ry="2.28514" fill="#C3D0E4"/>
<ellipse rx="2.48409" ry="2.47822" transform="matrix(0.963003 -0.269489 0.270877 0.962614 1043.74 35.5687)" fill="#C3D0E4"/>
<ellipse cx="1358.19" cy="145.323" rx="2.74977" ry="2.28514" fill="#C3D0E4"/>
<ellipse cx="1213.37" cy="202.908" rx="2.74977" ry="2.28514" fill="#C3D0E4"/>
<ellipse cx="1211.07" cy="20.5547" rx="2.29148" ry="2.74216" fill="#C3D0E4"/>
<ellipse cx="1137.75" cy="43.4057" rx="2.29148" ry="2.74216" fill="#C3D0E4"/>
<ellipse cx="1352.23" cy="31.9802" rx="2.29148" ry="2.28514" fill="#C3D0E4"/>
<ellipse cx="1236.74" cy="84.9953" rx="2.29148" ry="2.28514" fill="#C3D0E4"/>
<ellipse cx="1326.56" cy="154.006" rx="2.29148" ry="2.74216" fill="#C3D0E4"/>
<ellipse cx="1091.46" cy="142.581" rx="2.74977" ry="2.28514" fill="#C3D0E4"/>
<ellipse rx="2.48336" ry="2.47896" transform="matrix(0.905847 -0.423604 0.425532 0.904943 1257.17 150.334)" fill="#C3D0E4"/>
<ellipse rx="2.48336" ry="2.47896" transform="matrix(0.905847 -0.423604 0.425532 0.904943 1247.25 117.572)" fill="#C3D0E4"/>
<ellipse rx="2.48336" ry="2.47896" transform="matrix(0.905847 -0.423604 0.425532 0.904943 1322.55 172.665)" fill="#C3D0E4"/>
<ellipse cx="1149.66" cy="232.615" rx="2.29148" ry="2.74216" fill="#C3D0E4"/>
<ellipse cx="1144.62" cy="188.283" rx="2.74977" ry="2.28514" fill="#C3D0E4"/>
<ellipse cx="1192.74" cy="108.761" rx="2.29148" ry="2.28514" fill="#C3D0E4"/>
<ellipse cx="1098.33" cy="191.94" rx="2.29148" ry="2.28514" fill="#C3D0E4"/>
<ellipse cx="1312.81" cy="180.514" rx="2.29148" ry="2.74216" fill="#C3D0E4"/>
<ellipse cx="1168.45" cy="227.588" rx="2.74977" ry="2.28514" fill="#C3D0E4"/>
<ellipse cx="1382.94" cy="216.162" rx="2.74977" ry="2.74216" fill="#C3D0E4"/>
<ellipse cx="1310.06" cy="239.471" rx="2.29148" ry="2.28514" fill="#C3D0E4"/>
<ellipse cx="1156.99" cy="302.997" rx="2.29148" ry="2.74216" fill="#C3D0E4"/>
<ellipse rx="2.48409" ry="2.47822" transform="matrix(0.963003 -0.269489 0.270877 0.962614 1085.06 95.5313)" fill="#C3D0E4"/>
<ellipse rx="2.48409" ry="2.47822" transform="matrix(0.963003 -0.269489 0.270877 0.962614 1224.55 68.5057)" fill="#C3D0E4"/>
<ellipse rx="2.48409" ry="2.47822" transform="matrix(0.963003 -0.269489 0.270877 0.962614 1094.26 171.018)" fill="#C3D0E4"/>
<ellipse cx="1408.6" cy="280.603" rx="2.74977" ry="2.28514" fill="#C3D0E4"/>
<ellipse cx="1263.78" cy="338.188" rx="2.74977" ry="2.28514" fill="#C3D0E4"/>
<ellipse cx="1190.91" cy="120.187" rx="2.29148" ry="2.74216" fill="#C3D0E4"/>
<ellipse cx="1261.49" cy="155.835" rx="2.29148" ry="2.74216" fill="#C3D0E4"/>
<ellipse cx="1188.62" cy="179.143" rx="2.74977" ry="2.28514" fill="#C3D0E4"/>
<ellipse cx="1403.1" cy="167.26" rx="2.74977" ry="2.28514" fill="#C3D0E4"/>
<ellipse cx="1287.15" cy="220.275" rx="2.29148" ry="2.28514" fill="#C3D0E4"/>
<ellipse cx="1377.44" cy="289.744" rx="2.74977" ry="2.28514" fill="#C3D0E4"/>
<ellipse cx="1142.33" cy="277.861" rx="2.29148" ry="2.28514" fill="#C3D0E4"/>
<ellipse rx="2.48336" ry="2.47896" transform="matrix(0.905847 -0.423604 0.425532 0.904943 1430.64 82.3327)" fill="#C3D0E4"/>
<ellipse rx="2.48336" ry="2.47896" transform="matrix(0.905847 -0.423604 0.425532 0.904943 1307.69 285.783)" fill="#C3D0E4"/>
<ellipse rx="2.48336" ry="2.47896" transform="matrix(0.905847 -0.423604 0.425532 0.904943 1297.77 253.02)" fill="#C3D0E4"/>
<ellipse rx="2.48336" ry="2.47896" transform="matrix(0.905847 -0.423604 0.425532 0.904943 1373.07 308.114)" fill="#C3D0E4"/>
<ellipse cx="1172.58" cy="397.145" rx="2.29148" ry="2.74216" fill="#C3D0E4"/>
<ellipse cx="1167.99" cy="352.356" rx="2.29148" ry="2.74216" fill="#C3D0E4"/>
<ellipse cx="1215.66" cy="273.29" rx="2.29148" ry="2.28514" fill="#C3D0E4"/>
<ellipse cx="1121.25" cy="356.47" rx="2.29148" ry="2.28514" fill="#C3D0E4"/>
<ellipse cx="1335.73" cy="345.044" rx="2.29148" ry="2.74216" fill="#C3D0E4"/>
<ellipse cx="1191.83" cy="392.118" rx="2.29148" ry="2.28514" fill="#C3D0E4"/>
<ellipse cx="1406.31" cy="380.235" rx="2.29148" ry="2.28514" fill="#C3D0E4"/>
<ellipse cx="1333.44" cy="403.543" rx="2.74977" ry="2.74216" fill="#C3D0E4"/>
<ellipse cx="1179.91" cy="467.07" rx="2.29148" ry="2.28514" fill="#C3D0E4"/>
<ellipse rx="2.48409" ry="2.47822" transform="matrix(0.963003 -0.269489 0.270877 0.962614 1108.25 259.886)" fill="#C3D0E4"/>
<ellipse rx="2.48409" ry="2.47822" transform="matrix(0.963003 -0.269489 0.270877 0.962614 1247.74 232.861)" fill="#C3D0E4"/>
<ellipse rx="2.48409" ry="2.47822" transform="matrix(0.963003 -0.269489 0.270877 0.962614 1117.45 335.373)" fill="#C3D0E4"/>
<ellipse cx="1431.97" cy="445.133" rx="2.29148" ry="2.28514" fill="#C3D0E4"/>
<ellipse cx="1287.15" cy="502.718" rx="2.29148" ry="2.28514" fill="#C3D0E4"/>
<ellipse cx="1214.28" cy="284.717" rx="2.74977" ry="2.74216" fill="#C3D0E4"/>
<ellipse cx="1284.4" cy="320.365" rx="2.29148" ry="2.74216" fill="#C3D0E4"/>
<ellipse cx="1211.53" cy="343.216" rx="2.74977" ry="2.74216" fill="#C3D0E4"/>
<ellipse cx="1426.02" cy="331.79" rx="2.74977" ry="2.28514" fill="#C3D0E4"/>
<ellipse cx="1310.06" cy="384.805" rx="2.29148" ry="2.28514" fill="#C3D0E4"/>
<ellipse cx="1400.35" cy="453.816" rx="2.74977" ry="2.74216" fill="#C3D0E4"/>
<ellipse cx="1165.24" cy="442.391" rx="2.29148" ry="2.28514" fill="#C3D0E4"/>
<ellipse rx="2.48336" ry="2.47896" transform="matrix(0.905847 -0.423604 0.425532 0.904943 1453.83 246.689)" fill="#C3D0E4"/>
<ellipse rx="2.48336" ry="2.47896" transform="matrix(0.905847 -0.423604 0.425532 0.904943 1330.88 450.139)" fill="#C3D0E4"/>
<ellipse rx="2.48336" ry="2.47896" transform="matrix(0.905847 -0.423604 0.425532 0.904943 1320.96 417.376)" fill="#C3D0E4"/>
<ellipse rx="2.48336" ry="2.47896" transform="matrix(0.905847 -0.423604 0.425532 0.904943 1396.26 472.47)" fill="#C3D0E4"/>
<ellipse cx="1177.62" cy="529.226" rx="2.74977" ry="2.28514" fill="#C3D0E4"/>
<ellipse cx="1172.58" cy="484.437" rx="2.29148" ry="2.28514" fill="#C3D0E4"/>
<ellipse cx="1220.7" cy="405.372" rx="2.74977" ry="2.74216" fill="#C3D0E4"/>
<ellipse cx="1126.29" cy="488.551" rx="2.74977" ry="2.74216" fill="#C3D0E4"/>
<ellipse cx="1340.77" cy="477.125" rx="2.74977" ry="2.28514" fill="#C3D0E4"/>
<ellipse cx="1196.87" cy="524.199" rx="2.74977" ry="2.74216" fill="#C3D0E4"/>
<ellipse cx="1411.35" cy="512.773" rx="2.74977" ry="2.28514" fill="#C3D0E4"/>
<ellipse cx="1338.48" cy="535.624" rx="2.29148" ry="2.28514" fill="#C3D0E4"/>
<ellipse cx="1184.95" cy="599.608" rx="2.74977" ry="2.28514" fill="#C3D0E4"/>
<ellipse rx="2.48409" ry="2.47822" transform="matrix(0.963003 -0.269489 0.270877 0.962614 1113.22 392.032)" fill="#C3D0E4"/>
<ellipse rx="2.48409" ry="2.47822" transform="matrix(0.963003 -0.269489 0.270877 0.962614 1252.71 365.006)" fill="#C3D0E4"/>
<ellipse rx="2.48409" ry="2.47822" transform="matrix(0.963003 -0.269489 0.270877 0.962614 1122.42 467.518)" fill="#C3D0E4"/>
<ellipse cx="1437.02" cy="577.214" rx="2.74977" ry="2.74216" fill="#C3D0E4"/>
<ellipse cx="1291.74" cy="634.799" rx="2.29148" ry="2.74216" fill="#C3D0E4"/>
<ellipse cx="1219.32" cy="416.797" rx="2.29148" ry="2.28514" fill="#C3D0E4"/>
<ellipse cx="1289.45" cy="452.445" rx="2.74977" ry="2.28514" fill="#C3D0E4"/>
<ellipse cx="1216.57" cy="475.297" rx="2.29148" ry="2.28514" fill="#C3D0E4"/>
<ellipse cx="1431.06" cy="463.871" rx="2.29148" ry="2.74216" fill="#C3D0E4"/>
<ellipse cx="1315.11" cy="516.886" rx="2.74977" ry="2.74216" fill="#C3D0E4"/>
<ellipse cx="1405.39" cy="585.897" rx="2.29148" ry="2.28514" fill="#C3D0E4"/>
<ellipse cx="1170.28" cy="574.472" rx="2.74977" ry="2.74216" fill="#C3D0E4"/>
<ellipse rx="2.48336" ry="2.47896" transform="matrix(0.905847 -0.423604 0.425532 0.904943 1458.8 378.834)" fill="#C3D0E4"/>
<ellipse rx="2.48336" ry="2.47896" transform="matrix(0.905847 -0.423604 0.425532 0.904943 1335.85 582.284)" fill="#C3D0E4"/>
<ellipse rx="2.48336" ry="2.47896" transform="matrix(0.905847 -0.423604 0.425532 0.904943 1325.93 549.521)" fill="#C3D0E4"/>
<ellipse rx="2.48336" ry="2.47896" transform="matrix(0.905847 -0.423604 0.425532 0.904943 1401.23 604.615)" fill="#C3D0E4"/>
<ellipse cx="1131.33" cy="632.514" rx="2.29148" ry="2.28514" fill="#C3D0E4"/>
<ellipse cx="1126.29" cy="587.725" rx="2.74977" ry="2.28514" fill="#C3D0E4"/>
<ellipse cx="1174.41" cy="508.66" rx="2.29148" ry="2.74216" fill="#C3D0E4"/>
<ellipse cx="1080" cy="591.839" rx="2.29148" ry="2.74216" fill="#C3D0E4"/>
<ellipse cx="1294.48" cy="580.413" rx="2.29148" ry="2.28514" fill="#C3D0E4"/>
<ellipse cx="1150.58" cy="627.487" rx="2.29148" ry="2.74216" fill="#C3D0E4"/>
<ellipse cx="1365.06" cy="616.061" rx="2.29148" ry="2.28514" fill="#C3D0E4"/>
<ellipse cx="1291.74" cy="638.912" rx="2.29148" ry="2.28514" fill="#C3D0E4"/>
<ellipse cx="1138.66" cy="702.439" rx="2.29148" ry="2.74216" fill="#C3D0E4"/>
<ellipse rx="2.48409" ry="2.47822" transform="matrix(0.963003 -0.269489 0.270877 0.962614 1066.84 495.27)" fill="#C3D0E4"/>
<ellipse rx="2.48409" ry="2.47822" transform="matrix(0.963003 -0.269489 0.270877 0.962614 1206.33 468.245)" fill="#C3D0E4"/>
<ellipse rx="2.48409" ry="2.47822" transform="matrix(0.963003 -0.269489 0.270877 0.962614 1076.04 570.756)" fill="#C3D0E4"/>
<ellipse cx="1390.73" cy="680.045" rx="2.29148" ry="2.28514" fill="#C3D0E4"/>
<ellipse cx="1172.58" cy="520.085" rx="2.29148" ry="2.28514" fill="#C3D0E4"/>
<ellipse cx="1243.15" cy="555.733" rx="2.29148" ry="2.28514" fill="#C3D0E4"/>
<ellipse cx="1170.28" cy="578.585" rx="2.74977" ry="2.28514" fill="#C3D0E4"/>
<ellipse cx="1384.77" cy="567.159" rx="2.74977" ry="2.74216" fill="#C3D0E4"/>
<ellipse cx="1268.82" cy="620.175" rx="2.29148" ry="2.74216" fill="#C3D0E4"/>
<ellipse cx="1359.11" cy="689.186" rx="2.74977" ry="2.28514" fill="#C3D0E4"/>
<ellipse cx="1124" cy="677.76" rx="2.29148" ry="2.74216" fill="#C3D0E4"/>
<ellipse rx="2.48336" ry="2.47896" transform="matrix(0.905847 -0.423604 0.425532 0.904943 1412.42 482.072)" fill="#C3D0E4"/>
<ellipse rx="2.48336" ry="2.47896" transform="matrix(0.905847 -0.423604 0.425532 0.904943 1289.47 685.522)" fill="#C3D0E4"/>
<ellipse rx="2.48336" ry="2.47896" transform="matrix(0.905847 -0.423604 0.425532 0.904943 1279.55 652.76)" fill="#C3D0E4"/>
<ellipse rx="2.48336" ry="2.47896" transform="matrix(0.905847 -0.423604 0.425532 0.904943 1354.85 707.854)" fill="#C3D0E4"/>
<ellipse cx="1044.26" cy="707.467" rx="2.29148" ry="2.28514" fill="#C3D0E4"/>
<ellipse cx="1092.37" cy="628.401" rx="2.74977" ry="2.74216" fill="#C3D0E4"/>
<ellipse cx="997.969" cy="711.58" rx="2.74977" ry="2.74216" fill="#C3D0E4"/>
<ellipse cx="1212.45" cy="700.154" rx="2.74977" ry="2.28514" fill="#C3D0E4"/>
<ellipse rx="2.48409" ry="2.47822" transform="matrix(0.963003 -0.269489 0.270877 0.962614 984.853 615.027)" fill="#C3D0E4"/>
<ellipse rx="2.48409" ry="2.47822" transform="matrix(0.963003 -0.269489 0.270877 0.962614 1124.34 588.001)" fill="#C3D0E4"/>
<ellipse rx="2.48409" ry="2.47822" transform="matrix(0.963003 -0.269489 0.270877 0.962614 994.052 690.513)" fill="#C3D0E4"/>
<ellipse cx="1090.54" cy="639.827" rx="2.74977" ry="2.28514" fill="#C3D0E4"/>
<ellipse cx="1161.12" cy="675.475" rx="2.74977" ry="2.28514" fill="#C3D0E4"/>
<ellipse cx="1088.25" cy="698.326" rx="2.29148" ry="2.28514" fill="#C3D0E4"/>
<ellipse cx="1302.73" cy="686.9" rx="2.29148" ry="2.74216" fill="#C3D0E4"/>
<ellipse rx="2.48336" ry="2.47896" transform="matrix(0.905847 -0.423604 0.425532 0.904943 1330.43 601.829)" fill="#C3D0E4"/>
<ellipse cx="1013.55" cy="701.982" rx="2.74977" ry="2.28514" fill="#C3D0E4"/>
<ellipse rx="2.48409" ry="2.47822" transform="matrix(0.963003 -0.269489 0.270877 0.962614 906.173 688.533)" fill="#C3D0E4"/>
<ellipse rx="2.48409" ry="2.47822" transform="matrix(0.963003 -0.269489 0.270877 0.962614 1045.66 661.507)" fill="#C3D0E4"/>
<ellipse cx="1012.17" cy="713.408" rx="2.29148" ry="2.74216" fill="#C3D0E4"/>
<ellipse rx="2.48336" ry="2.47896" transform="matrix(0.905847 -0.423604 0.425532 0.904943 1251.75 675.334)" fill="#C3D0E4"/>
<ellipse rx="2.48409" ry="2.47822" transform="matrix(0.963003 -0.269489 0.270877 0.962614 930.544 713.539)" fill="#C3D0E4"/>
<ellipse rx="2.48209" ry="2.48024" transform="matrix(0.797434 0.603406 -0.605531 0.795821 499.087 715.491)" fill="#C3D0E4"/>
<ellipse rx="2.48367" ry="2.47865" transform="matrix(0.930664 0.365875 -0.367633 0.929971 544.045 718.844)" fill="#C3D0E4"/>
<ellipse rx="2.48429" ry="2.47802" transform="matrix(0.978021 0.208508 -0.209616 0.977784 495.086 705.664)" fill="#C3D0E4"/>
<ellipse rx="2.48209" ry="2.48024" transform="matrix(0.797434 0.603406 -0.605531 0.795821 385.427 615.058)" fill="#C3D0E4"/>
<ellipse rx="2.48209" ry="2.48024" transform="matrix(0.797434 0.603406 -0.605531 0.795821 423.985 650.458)" fill="#C3D0E4"/>
<ellipse rx="2.48209" ry="2.48024" transform="matrix(0.797434 0.603406 -0.605531 0.795821 466.786 639.299)" fill="#C3D0E4"/>
<ellipse rx="2.48209" ry="2.48024" transform="matrix(0.797434 0.603406 -0.605531 0.795821 382.247 703.317)" fill="#C3D0E4"/>
<ellipse rx="2.48367" ry="2.47865" transform="matrix(0.930664 0.365875 -0.367633 0.929971 430.385 618.411)" fill="#C3D0E4"/>
<ellipse rx="2.48367" ry="2.47865" transform="matrix(0.930664 0.365875 -0.367633 0.929971 391.955 684.091)" fill="#C3D0E4"/>
<ellipse rx="2.48209" ry="2.48024" transform="matrix(0.797434 0.603406 -0.605531 0.795821 387.575 638.925)" fill="#C3D0E4"/>
<ellipse rx="2.48367" ry="2.47865" transform="matrix(0.930664 0.365875 -0.367633 0.929971 437.439 626.112)" fill="#C3D0E4"/>
<ellipse rx="2.48209" ry="2.48024" transform="matrix(0.797434 0.603406 -0.605531 0.795821 379.247 647.138)" fill="#C3D0E4"/>
<ellipse rx="2.48209" ry="2.48024" transform="matrix(0.797434 0.603406 -0.605531 0.795821 413.802 717.865)" fill="#C3D0E4"/>
<ellipse rx="2.48209" ry="2.48024" transform="matrix(0.797434 0.603406 -0.605531 0.795821 307.806 656.32)" fill="#C3D0E4"/>
<ellipse rx="2.48429" ry="2.47802" transform="matrix(0.978021 0.208508 -0.209616 0.977784 381.426 605.231)" fill="#C3D0E4"/>
<ellipse rx="2.48409" ry="2.47822" transform="matrix(0.963003 -0.269489 0.270877 0.962614 395.528 700.325)" fill="#C3D0E4"/>
<ellipse rx="2.48336" ry="2.47896" transform="matrix(0.905847 -0.423604 0.425532 0.904943 601.613 714.153)" fill="#C3D0E4"/>
<ellipse cx="309.609" cy="701.068" rx="2.74977" ry="2.28514" fill="#C3D0E4"/>
<ellipse rx="2.48409" ry="2.47822" transform="matrix(0.963003 -0.269489 0.270877 0.962614 202.204 687.706)" fill="#C3D0E4"/>
<ellipse rx="2.48409" ry="2.47822" transform="matrix(0.963003 -0.269489 0.270877 0.962614 341.692 660.681)" fill="#C3D0E4"/>
<ellipse cx="308.233" cy="712.494" rx="2.29148" ry="2.74216" fill="#C3D0E4"/>
<ellipse rx="2.48336" ry="2.47896" transform="matrix(0.905847 -0.423604 0.425532 0.904943 547.781 674.508)" fill="#C3D0E4"/>
<ellipse cx="209.699" cy="712.494" rx="2.74977" ry="2.74216" fill="#C3D0E4"/>
<ellipse cx="257.823" cy="633.428" rx="2.29148" ry="2.28514" fill="#C3D0E4"/>
<ellipse cx="162.953" cy="716.607" rx="2.74977" ry="2.28514" fill="#C3D0E4"/>
<ellipse cx="377.893" cy="705.182" rx="2.29148" ry="2.74216" fill="#C3D0E4"/>
<ellipse rx="2.48409" ry="2.47822" transform="matrix(0.963003 -0.269489 0.270877 0.962614 150.028 619.982)" fill="#C3D0E4"/>
<ellipse rx="2.48409" ry="2.47822" transform="matrix(0.963003 -0.269489 0.270877 0.962614 289.517 592.957)" fill="#C3D0E4"/>
<ellipse rx="2.48409" ry="2.47822" transform="matrix(0.963003 -0.269489 0.270877 0.962614 159.228 695.469)" fill="#C3D0E4"/>
<ellipse cx="255.987" cy="644.854" rx="2.29148" ry="2.74216" fill="#C3D0E4"/>
<ellipse cx="326.565" cy="680.045" rx="2.29148" ry="2.28514" fill="#C3D0E4"/>
<ellipse cx="253.237" cy="703.353" rx="2.29148" ry="2.74216" fill="#C3D0E4"/>
<ellipse cx="467.721" cy="691.928" rx="2.29148" ry="2.28514" fill="#C3D0E4"/>
<ellipse rx="2.48336" ry="2.47896" transform="matrix(0.905847 -0.423604 0.425532 0.904943 495.605 606.784)" fill="#C3D0E4"/>
<ellipse cx="165.703" cy="671.362" rx="2.74977" ry="2.74216" fill="#C3D0E4"/>
<ellipse cx="160.663" cy="626.573" rx="2.29148" ry="2.74216" fill="#C3D0E4"/>
<ellipse cx="208.785" cy="547.507" rx="2.74977" ry="2.28514" fill="#C3D0E4"/>
<ellipse cx="114.375" cy="630.686" rx="2.74977" ry="2.28514" fill="#C3D0E4"/>
<ellipse cx="328.855" cy="619.26" rx="2.74977" ry="2.74216" fill="#C3D0E4"/>
<ellipse cx="184.495" cy="666.334" rx="2.29148" ry="2.28514" fill="#C3D0E4"/>
<ellipse cx="398.975" cy="654.451" rx="2.29148" ry="2.28514" fill="#C3D0E4"/>
<ellipse cx="326.565" cy="677.76" rx="2.29148" ry="2.74216" fill="#C3D0E4"/>
<ellipse rx="2.48409" ry="2.47822" transform="matrix(0.963003 -0.269489 0.270877 0.962614 101.165 534.088)" fill="#C3D0E4"/>
<ellipse rx="2.48409" ry="2.47822" transform="matrix(0.963003 -0.269489 0.270877 0.962614 240.653 507.063)" fill="#C3D0E4"/>
<ellipse rx="2.48409" ry="2.47822" transform="matrix(0.963003 -0.269489 0.270877 0.962614 110.364 609.574)" fill="#C3D0E4"/>
<ellipse cx="424.639" cy="719.35" rx="2.29148" ry="2.28514" fill="#C3D0E4"/>
<ellipse cx="206.949" cy="558.933" rx="2.74977" ry="2.74216" fill="#C3D0E4"/>
<ellipse cx="277.527" cy="594.581" rx="2.74977" ry="2.74216" fill="#C3D0E4"/>
<ellipse cx="204.659" cy="617.432" rx="2.29148" ry="2.74216" fill="#C3D0E4"/>
<ellipse cx="419.139" cy="606.007" rx="2.29148" ry="2.28514" fill="#C3D0E4"/>
<ellipse cx="303.191" cy="659.022" rx="2.74977" ry="2.28514" fill="#C3D0E4"/>
<ellipse cx="157.913" cy="716.607" rx="2.29148" ry="2.28514" fill="#C3D0E4"/>
<ellipse rx="2.48336" ry="2.47896" transform="matrix(0.905847 -0.423604 0.425532 0.904943 446.742 520.89)" fill="#C3D0E4"/>
<ellipse rx="2.48336" ry="2.47896" transform="matrix(0.905847 -0.423604 0.425532 0.904943 313.871 691.577)" fill="#C3D0E4"/>
<ellipse cx="129.957" cy="554.819" rx="2.74977" ry="2.28514" fill="#C3D0E4"/>
<ellipse cx="124.916" cy="510.031" rx="2.29148" ry="2.28514" fill="#C3D0E4"/>
<ellipse cx="173.035" cy="430.965" rx="2.74977" ry="2.74216" fill="#C3D0E4"/>
<ellipse cx="78.6287" cy="514.144" rx="2.74977" ry="2.74216" fill="#C3D0E4"/>
<ellipse cx="293.109" cy="502.718" rx="2.74977" ry="2.28514" fill="#C3D0E4"/>
<ellipse cx="149.207" cy="549.792" rx="2.74977" ry="2.74216" fill="#C3D0E4"/>
<ellipse cx="363.687" cy="538.367" rx="2.74977" ry="2.28514" fill="#C3D0E4"/>
<ellipse cx="290.819" cy="561.218" rx="2.29148" ry="2.28514" fill="#C3D0E4"/>
<ellipse cx="137.289" cy="625.202" rx="2.74977" ry="2.28514" fill="#C3D0E4"/>
<ellipse rx="2.48409" ry="2.47822" transform="matrix(0.963003 -0.269489 0.270877 0.962614 65.5518 417.635)" fill="#C3D0E4"/>
<ellipse rx="2.48409" ry="2.47822" transform="matrix(0.963003 -0.269489 0.270877 0.962614 205.04 390.61)" fill="#C3D0E4"/>
<ellipse rx="2.48409" ry="2.47822" transform="matrix(0.963003 -0.269489 0.270877 0.962614 74.751 493.121)" fill="#C3D0E4"/>
<ellipse cx="389.351" cy="602.807" rx="2.74977" ry="2.74216" fill="#C3D0E4"/>
<ellipse cx="244.073" cy="660.393" rx="2.29148" ry="2.74216" fill="#C3D0E4"/>
<ellipse cx="171.663" cy="442.391" rx="2.29148" ry="2.28514" fill="#C3D0E4"/>
<ellipse cx="241.781" cy="478.039" rx="2.74977" ry="2.28514" fill="#C3D0E4"/>
<ellipse cx="168.913" cy="500.89" rx="2.29148" ry="2.28514" fill="#C3D0E4"/>
<ellipse cx="383.393" cy="489.464" rx="2.29148" ry="2.74216" fill="#C3D0E4"/>
<ellipse cx="267.445" cy="542.479" rx="2.74977" ry="2.74216" fill="#C3D0E4"/>
<ellipse cx="357.729" cy="611.491" rx="2.29148" ry="2.28514" fill="#C3D0E4"/>
<ellipse cx="122.625" cy="600.065" rx="2.74977" ry="2.74216" fill="#C3D0E4"/>
<ellipse rx="2.48336" ry="2.47896" transform="matrix(0.905847 -0.423604 0.425532 0.904943 411.129 404.437)" fill="#C3D0E4"/>
<ellipse rx="2.48336" ry="2.47896" transform="matrix(0.905847 -0.423604 0.425532 0.904943 288.176 607.886)" fill="#C3D0E4"/>
<ellipse rx="2.48336" ry="2.47896" transform="matrix(0.905847 -0.423604 0.425532 0.904943 278.258 575.124)" fill="#C3D0E4"/>
<ellipse rx="2.48336" ry="2.47896" transform="matrix(0.905847 -0.423604 0.425532 0.904943 353.562 630.219)" fill="#C3D0E4"/>
<ellipse cx="122.625" cy="485.352" rx="2.74977" ry="2.28514" fill="#C3D0E4"/>
<ellipse cx="117.584" cy="440.563" rx="2.29148" ry="2.28514" fill="#C3D0E4"/>
<ellipse cx="165.703" cy="361.497" rx="2.74977" ry="2.74216" fill="#C3D0E4"/>
<ellipse cx="71.2966" cy="445.133" rx="2.74977" ry="2.28514" fill="#C3D0E4"/>
<ellipse cx="285.777" cy="433.25" rx="2.74977" ry="2.28514" fill="#C3D0E4"/>
<ellipse cx="141.413" cy="480.324" rx="2.29148" ry="2.74216" fill="#C3D0E4"/>
<ellipse cx="355.897" cy="468.898" rx="2.29148" ry="2.28514" fill="#C3D0E4"/>
<ellipse cx="283.487" cy="491.75" rx="2.29148" ry="2.28514" fill="#C3D0E4"/>
<ellipse cx="129.957" cy="555.733" rx="2.74977" ry="2.28514" fill="#C3D0E4"/>
<ellipse rx="2.48409" ry="2.47822" transform="matrix(0.963003 -0.269489 0.270877 0.962614 58.0986 348.259)" fill="#C3D0E4"/>
<ellipse rx="2.48409" ry="2.47822" transform="matrix(0.963003 -0.269489 0.270877 0.962614 197.587 321.233)" fill="#C3D0E4"/>
<ellipse rx="2.48409" ry="2.47822" transform="matrix(0.963003 -0.269489 0.270877 0.962614 67.2979 423.745)" fill="#C3D0E4"/>
<ellipse cx="381.561" cy="533.339" rx="2.29148" ry="2.74216" fill="#C3D0E4"/>
<ellipse cx="236.741" cy="590.925" rx="2.29148" ry="2.74216" fill="#C3D0E4"/>
<ellipse cx="163.871" cy="372.923" rx="2.74977" ry="2.28514" fill="#C3D0E4"/>
<ellipse cx="234.449" cy="408.571" rx="2.74977" ry="2.28514" fill="#C3D0E4"/>
<ellipse cx="161.581" cy="431.879" rx="2.29148" ry="2.74216" fill="#C3D0E4"/>
<ellipse cx="376.061" cy="419.997" rx="2.29148" ry="2.74216" fill="#C3D0E4"/>
<ellipse cx="260.113" cy="473.011" rx="2.74977" ry="2.74216" fill="#C3D0E4"/>
<ellipse cx="350.397" cy="542.479" rx="2.29148" ry="2.74216" fill="#C3D0E4"/>
<ellipse cx="115.293" cy="531.054" rx="2.74977" ry="2.28514" fill="#C3D0E4"/>
<ellipse rx="2.48336" ry="2.47896" transform="matrix(0.905847 -0.423604 0.425532 0.904943 376.726 339.471)" fill="#C3D0E4"/>
<ellipse rx="2.48336" ry="2.47896" transform="matrix(0.905847 -0.423604 0.425532 0.904943 501.304 201.745)" fill="#C3D0E4"/>
<ellipse rx="2.48336" ry="2.47896" transform="matrix(0.905847 -0.423604 0.425532 0.904943 476.304 144.903)" fill="#C3D0E4"/>
<ellipse rx="2.48336" ry="2.47896" transform="matrix(0.905847 -0.423604 0.425532 0.904943 439.304 278.532)" fill="#C3D0E4"/>
<ellipse rx="2.48336" ry="2.47896" transform="matrix(0.905847 -0.423604 0.425532 0.904943 280.722 538.511)" fill="#C3D0E4"/>
<ellipse rx="2.48336" ry="2.47896" transform="matrix(0.905847 -0.423604 0.425532 0.904943 270.804 505.748)" fill="#C3D0E4"/>
<ellipse rx="2.48336" ry="2.47896" transform="matrix(0.905847 -0.423604 0.425532 0.904943 346.105 560.842)" fill="#C3D0E4"/>
<ellipse cx="117.584" cy="444.219" rx="2.29148" ry="2.28514" fill="#C3D0E4"/>
<ellipse cx="112.543" cy="399.43" rx="2.74977" ry="2.28514" fill="#C3D0E4"/>
<ellipse cx="160.663" cy="320.365" rx="2.29148" ry="2.74216" fill="#C3D0E4"/>
<ellipse cx="66.2524" cy="403.543" rx="2.29148" ry="2.74216" fill="#C3D0E4"/>
<ellipse cx="280.737" cy="392.118" rx="2.29148" ry="2.28514" fill="#C3D0E4"/>
<ellipse cx="136.831" cy="439.192" rx="2.29148" ry="2.74216" fill="#C3D0E4"/>
<ellipse cx="351.315" cy="427.766" rx="2.29148" ry="2.28514" fill="#C3D0E4"/>
<ellipse cx="278.445" cy="450.617" rx="2.74977" ry="2.28514" fill="#C3D0E4"/>
<ellipse cx="124.916" cy="514.144" rx="2.29148" ry="2.74216" fill="#C3D0E4"/>
<ellipse rx="2.48409" ry="2.47822" transform="matrix(0.963003 -0.269489 0.270877 0.962614 53.1299 306.963)" fill="#C3D0E4"/>
<ellipse rx="2.48409" ry="2.47822" transform="matrix(0.963003 -0.269489 0.270877 0.962614 192.618 279.938)" fill="#C3D0E4"/>
<ellipse rx="2.48409" ry="2.47822" transform="matrix(0.963003 -0.269489 0.270877 0.962614 62.3291 382.45)" fill="#C3D0E4"/>
<ellipse cx="376.979" cy="491.75" rx="2.29148" ry="2.28514" fill="#C3D0E4"/>
<ellipse cx="231.699" cy="549.792" rx="2.74977" ry="2.74216" fill="#C3D0E4"/>
<ellipse cx="158.831" cy="331.79" rx="2.29148" ry="2.28514" fill="#C3D0E4"/>
<ellipse cx="229.405" cy="367.438" rx="2.29148" ry="2.28514" fill="#C3D0E4"/>
<ellipse cx="156.539" cy="390.29" rx="2.74977" ry="2.28514" fill="#C3D0E4"/>
<ellipse cx="371.019" cy="378.864" rx="2.74977" ry="2.74216" fill="#C3D0E4"/>
<ellipse cx="255.073" cy="431.879" rx="2.29148" ry="2.74216" fill="#C3D0E4"/>
<ellipse cx="345.355" cy="500.89" rx="2.74977" ry="2.28514" fill="#C3D0E4"/>
<ellipse cx="110.249" cy="489.464" rx="2.29148" ry="2.74216" fill="#C3D0E4"/>
<ellipse rx="2.48336" ry="2.47896" transform="matrix(0.905847 -0.423604 0.425532 0.904943 371.758 298.175)" fill="#C3D0E4"/>
<ellipse rx="2.48336" ry="2.47896" transform="matrix(0.905847 -0.423604 0.425532 0.904943 275.754 497.215)" fill="#C3D0E4"/>
<ellipse rx="2.48336" ry="2.47896" transform="matrix(0.905847 -0.423604 0.425532 0.904943 265.836 464.453)" fill="#C3D0E4"/>
<ellipse rx="2.48336" ry="2.47896" transform="matrix(0.905847 -0.423604 0.425532 0.904943 341.136 519.547)" fill="#C3D0E4"/>
<ellipse cx="115.749" cy="385.262" rx="2.29148" ry="2.74216" fill="#C3D0E4"/>
<ellipse cx="111.166" cy="340.931" rx="2.29148" ry="2.28514" fill="#C3D0E4"/>
<ellipse cx="158.831" cy="261.408" rx="2.29148" ry="2.28514" fill="#C3D0E4"/>
<ellipse cx="64.4204" cy="345.044" rx="2.29148" ry="2.74216" fill="#C3D0E4"/>
<ellipse cx="278.901" cy="333.618" rx="2.29148" ry="2.28514" fill="#C3D0E4"/>
<ellipse cx="134.999" cy="380.235" rx="2.29148" ry="2.28514" fill="#C3D0E4"/>
<ellipse cx="349.479" cy="368.809" rx="2.29148" ry="2.74216" fill="#C3D0E4"/>
<ellipse cx="276.609" cy="392.118" rx="2.74977" ry="2.28514" fill="#C3D0E4"/>
<ellipse cx="123.539" cy="455.645" rx="2.74977" ry="2.74216" fill="#C3D0E4"/>
<ellipse rx="2.48409" ry="2.47822" transform="matrix(0.963003 -0.269489 0.270877 0.962614 51.4736 248.324)" fill="#C3D0E4"/>
<ellipse rx="2.48409" ry="2.47822" transform="matrix(0.963003 -0.269489 0.270877 0.962614 190.962 221.299)" fill="#C3D0E4"/>
<ellipse rx="2.48409" ry="2.47822" transform="matrix(0.963003 -0.269489 0.270877 0.962614 60.6729 323.811)" fill="#C3D0E4"/>
<ellipse cx="375.143" cy="433.25" rx="2.29148" ry="2.28514" fill="#C3D0E4"/>
<ellipse cx="230.323" cy="491.293" rx="2.29148" ry="2.74216" fill="#C3D0E4"/>
<ellipse cx="157.453" cy="273.29" rx="2.74977" ry="2.28514" fill="#C3D0E4"/>
<ellipse cx="227.573" cy="308.482" rx="2.29148" ry="2.74216" fill="#C3D0E4"/>
<ellipse cx="154.703" cy="331.79" rx="2.74977" ry="2.28514" fill="#C3D0E4"/>
<ellipse cx="342.605" cy="324.478" rx="2.74977" ry="2.28514" fill="#C3D0E4"/>
<ellipse cx="253.237" cy="372.923" rx="2.29148" ry="2.28514" fill="#C3D0E4"/>
<ellipse cx="343.523" cy="442.391" rx="2.74977" ry="2.28514" fill="#C3D0E4"/>
<ellipse cx="108.416" cy="430.965" rx="2.29148" ry="2.74216" fill="#C3D0E4"/>
<ellipse rx="2.48336" ry="2.47896" transform="matrix(0.905847 -0.423604 0.425532 0.904943 370.101 239.536)" fill="#C3D0E4"/>
<ellipse rx="2.48336" ry="2.47896" transform="matrix(0.905847 -0.423604 0.425532 0.904943 274.097 438.576)" fill="#C3D0E4"/>
<ellipse rx="2.48336" ry="2.47896" transform="matrix(0.905847 -0.423604 0.425532 0.904943 264.179 405.813)" fill="#C3D0E4"/>
<ellipse rx="2.48336" ry="2.47896" transform="matrix(0.905847 -0.423604 0.425532 0.904943 339.48 460.907)" fill="#C3D0E4"/>
<ellipse cx="115.749" cy="285.63" rx="2.29148" ry="2.74216" fill="#C3D0E4"/>
<ellipse cx="111.166" cy="240.842" rx="2.29148" ry="2.74216" fill="#C3D0E4"/>
<ellipse cx="158.831" cy="161.776" rx="2.29148" ry="2.28514" fill="#C3D0E4"/>
<ellipse cx="64.4204" cy="244.955" rx="2.29148" ry="2.28514" fill="#C3D0E4"/>
<ellipse cx="278.901" cy="233.529" rx="2.29148" ry="2.74216" fill="#C3D0E4"/>
<ellipse cx="134.999" cy="280.603" rx="2.29148" ry="2.28514" fill="#C3D0E4"/>
<ellipse cx="349.479" cy="269.177" rx="2.29148" ry="2.74216" fill="#C3D0E4"/>
<ellipse cx="276.609" cy="292.029" rx="2.74977" ry="2.74216" fill="#C3D0E4"/>
<ellipse cx="123.539" cy="355.555" rx="2.74977" ry="2.28514" fill="#C3D0E4"/>
<ellipse rx="2.48409" ry="2.47822" transform="matrix(0.963003 -0.269489 0.270877 0.962614 51.4736 148.389)" fill="#C3D0E4"/>
<ellipse rx="2.48409" ry="2.47822" transform="matrix(0.963003 -0.269489 0.270877 0.962614 190.962 121.364)" fill="#C3D0E4"/>
<ellipse rx="2.48409" ry="2.47822" transform="matrix(0.963003 -0.269489 0.270877 0.962614 60.6729 223.875)" fill="#C3D0E4"/>
<ellipse cx="348.105" cy="337.731" rx="2.74977" ry="2.74216" fill="#C3D0E4"/>
<ellipse cx="230.323" cy="391.204" rx="2.29148" ry="2.28514" fill="#C3D0E4"/>
<ellipse cx="157.453" cy="173.202" rx="2.74977" ry="2.74216" fill="#C3D0E4"/>
<ellipse cx="227.573" cy="208.85" rx="2.29148" ry="2.74216" fill="#C3D0E4"/>
<ellipse cx="154.703" cy="231.701" rx="2.74977" ry="2.74216" fill="#C3D0E4"/>
<ellipse cx="342.605" cy="224.846" rx="2.74977" ry="2.28514" fill="#C3D0E4"/>
<ellipse cx="253.237" cy="273.29" rx="2.29148" ry="2.28514" fill="#C3D0E4"/>
<ellipse cx="343.523" cy="342.759" rx="2.74977" ry="2.28514" fill="#C3D0E4"/>
<ellipse cx="108.416" cy="330.876" rx="2.29148" ry="2.28514" fill="#C3D0E4"/>
<ellipse rx="2.48336" ry="2.47896" transform="matrix(0.905847 -0.423604 0.425532 0.904943 397.051 135.191)" fill="#C3D0E4"/>
<ellipse rx="2.48336" ry="2.47896" transform="matrix(0.905847 -0.423604 0.425532 0.904943 274.097 338.641)" fill="#C3D0E4"/>
<ellipse rx="2.48336" ry="2.47896" transform="matrix(0.905847 -0.423604 0.425532 0.904943 264.179 305.879)" fill="#C3D0E4"/>
<ellipse rx="2.48336" ry="2.47896" transform="matrix(0.905847 -0.423604 0.425532 0.904943 339.48 360.973)" fill="#C3D0E4"/>
<ellipse cx="126.749" cy="249.982" rx="2.29148" ry="2.74216" fill="#C3D0E4"/>
<ellipse cx="121.707" cy="205.651" rx="2.74977" ry="2.28514" fill="#C3D0E4"/>
<ellipse cx="169.827" cy="126.128" rx="2.29148" ry="2.28514" fill="#C3D0E4"/>
<ellipse cx="75.4204" cy="209.307" rx="2.29148" ry="2.28514" fill="#C3D0E4"/>
<ellipse cx="289.901" cy="197.881" rx="2.29148" ry="2.74216" fill="#C3D0E4"/>
<ellipse cx="145.999" cy="244.955" rx="2.29148" ry="2.28514" fill="#C3D0E4"/>
<ellipse cx="333.441" cy="237.643" rx="2.74977" ry="2.28514" fill="#C3D0E4"/>
<ellipse cx="287.151" cy="256.837" rx="2.29148" ry="2.28514" fill="#C3D0E4"/>
<ellipse cx="134.081" cy="320.365" rx="2.29148" ry="2.74216" fill="#C3D0E4"/>
<ellipse rx="2.48409" ry="2.47822" transform="matrix(0.963003 -0.269489 0.270877 0.962614 62.2393 112.875)" fill="#C3D0E4"/>
<ellipse rx="2.48409" ry="2.47822" transform="matrix(0.963003 -0.269489 0.270877 0.962614 201.728 85.8497)" fill="#C3D0E4"/>
<ellipse rx="2.48409" ry="2.47822" transform="matrix(0.963003 -0.269489 0.270877 0.962614 71.4385 188.362)" fill="#C3D0E4"/>
<ellipse cx="359.105" cy="302.54" rx="2.74977" ry="2.28514" fill="#C3D0E4"/>
<ellipse cx="240.863" cy="355.555" rx="2.74977" ry="2.28514" fill="#C3D0E4"/>
<ellipse cx="167.995" cy="137.553" rx="2.29148" ry="2.74216" fill="#C3D0E4"/>
<ellipse cx="238.573" cy="173.202" rx="2.29148" ry="2.74216" fill="#C3D0E4"/>
<ellipse cx="165.703" cy="196.51" rx="2.74977" ry="2.28514" fill="#C3D0E4"/>
<ellipse cx="380.187" cy="184.627" rx="2.74977" ry="2.28514" fill="#C3D0E4"/>
<ellipse cx="264.237" cy="237.643" rx="2.29148" ry="2.28514" fill="#C3D0E4"/>
<ellipse cx="327.483" cy="311.224" rx="2.29148" ry="2.74216" fill="#C3D0E4"/>
<ellipse cx="119.416" cy="295.228" rx="2.29148" ry="2.28514" fill="#C3D0E4"/>
<ellipse rx="2.48336" ry="2.47896" transform="matrix(0.905847 -0.423604 0.425532 0.904943 407.816 99.6772)" fill="#C3D0E4"/>
<ellipse rx="2.48336" ry="2.47896" transform="matrix(0.905847 -0.423604 0.425532 0.904943 284.863 303.127)" fill="#C3D0E4"/>
<ellipse rx="2.48336" ry="2.47896" transform="matrix(0.905847 -0.423604 0.425532 0.904943 274.945 270.364)" fill="#C3D0E4"/>
<ellipse rx="2.48336" ry="2.47896" transform="matrix(0.905847 -0.423604 0.425532 0.904943 350.246 325.458)" fill="#C3D0E4"/>
<ellipse cx="140.957" cy="194.682" rx="2.74977" ry="2.28514" fill="#C3D0E4"/>
<ellipse cx="135.913" cy="149.893" rx="2.29148" ry="2.28514" fill="#C3D0E4"/>
<ellipse cx="184.035" cy="70.8274" rx="2.74977" ry="2.74216" fill="#C3D0E4"/>
<ellipse cx="89.6248" cy="154.006" rx="2.74977" ry="2.74216" fill="#C3D0E4"/>
<ellipse cx="304.109" cy="142.581" rx="2.74977" ry="2.28514" fill="#C3D0E4"/>
<ellipse cx="159.745" cy="189.655" rx="2.29148" ry="2.74216" fill="#C3D0E4"/>
<ellipse cx="374.229" cy="178.229" rx="2.29148" ry="2.28514" fill="#C3D0E4"/>
<ellipse cx="301.359" cy="201.081" rx="2.74977" ry="2.28514" fill="#C3D0E4"/>
<ellipse cx="148.289" cy="265.064" rx="2.74977" ry="2.28514" fill="#C3D0E4"/>
<ellipse rx="2.48409" ry="2.47822" transform="matrix(0.963003 -0.269489 0.270877 0.962614 76.3213 57.5394)" fill="#C3D0E4"/>
<ellipse rx="2.48409" ry="2.47822" transform="matrix(0.963003 -0.269489 0.270877 0.962614 215.806 30.5142)" fill="#C3D0E4"/>
<ellipse rx="2.48409" ry="2.47822" transform="matrix(0.963003 -0.269489 0.270877 0.962614 85.5205 133.026)" fill="#C3D0E4"/>
<ellipse cx="373.311" cy="246.783" rx="2.29148" ry="2.28514" fill="#C3D0E4"/>
<ellipse cx="255.073" cy="300.255" rx="2.29148" ry="2.74216" fill="#C3D0E4"/>
<ellipse cx="182.203" cy="82.2534" rx="2.74977" ry="2.28514" fill="#C3D0E4"/>
<ellipse cx="140.499" cy="41.1208" rx="2.29148" ry="2.28514" fill="#C3D0E4"/>
<ellipse cx="218.867" cy="132.069" rx="2.74977" ry="2.74216" fill="#C3D0E4"/>
<ellipse cx="244.531" cy="147.151" rx="2.74977" ry="2.28514" fill="#C3D0E4"/>
<ellipse cx="207.409" cy="270.092" rx="2.29148" ry="2.74216" fill="#C3D0E4"/>
<ellipse cx="179.453" cy="180.971" rx="2.74977" ry="2.28514" fill="#C3D0E4"/>
<ellipse cx="256.905" cy="208.85" rx="2.29148" ry="2.74216" fill="#C3D0E4"/>
<ellipse cx="320.151" cy="481.695" rx="2.29148" ry="2.28514" fill="#C3D0E4"/>
<ellipse cx="305.027" cy="410.399" rx="2.74977" ry="2.28514" fill="#C3D0E4"/>
<ellipse cx="342.605" cy="395.774" rx="2.74977" ry="2.28514" fill="#C3D0E4"/>
<ellipse cx="291.733" cy="332.704" rx="2.29148" ry="2.28514" fill="#C3D0E4"/>
<ellipse cx="321.523" cy="295.685" rx="2.74977" ry="2.74216" fill="#C3D0E4"/>
<ellipse cx="299.983" cy="265.978" rx="2.29148" ry="2.28514" fill="#C3D0E4"/>
<ellipse cx="221.617" cy="630.229" rx="2.74977" ry="2.74216" fill="#C3D0E4"/>
<ellipse cx="171.663" cy="534.253" rx="2.29148" ry="2.74216" fill="#C3D0E4"/>
<ellipse cx="179.913" cy="584.069" rx="2.29148" ry="2.28514" fill="#C3D0E4"/>
<ellipse cx="1129.04" cy="425.938" rx="2.74977" ry="2.28514" fill="#C3D0E4"/>
<ellipse cx="252.781" cy="117.901" rx="2.74977" ry="2.28514" fill="#C3D0E4"/>
<ellipse cx="179.913" cy="140.753" rx="2.29148" ry="2.28514" fill="#C3D0E4"/>
<ellipse cx="394.393" cy="129.327" rx="2.29148" ry="2.74216" fill="#C3D0E4"/>
<ellipse cx="278.445" cy="182.342" rx="2.74977" ry="2.74216" fill="#C3D0E4"/>
<ellipse cx="341.687" cy="255.924" rx="2.74977" ry="2.28514" fill="#C3D0E4"/>
<ellipse cx="133.166" cy="239.928" rx="2.29148" ry="2.74216" fill="#C3D0E4"/>
<ellipse rx="2.48336" ry="2.47896" transform="matrix(0.905847 -0.423604 0.425532 0.904943 421.894 44.3408)" fill="#C3D0E4"/>
<ellipse rx="2.48336" ry="2.47896" transform="matrix(0.905847 -0.423604 0.425532 0.904943 298.941 247.791)" fill="#C3D0E4"/>
<ellipse rx="2.48336" ry="2.47896" transform="matrix(0.905847 -0.423604 0.425532 0.904943 289.023 215.029)" fill="#C3D0E4"/>
<ellipse rx="2.48336" ry="2.47896" transform="matrix(0.905847 -0.423604 0.425532 0.904943 337.379 274.533)" fill="#C3D0E4"/>
<ellipse cx="151.953" cy="168.631" rx="2.74977" ry="3.65622" fill="#C3D0E4"/>
<ellipse cx="146.913" cy="109.218" rx="2.29148" ry="3.65622" fill="#C3D0E4"/>
<ellipse cx="195.035" cy="3.6445" rx="2.74977" ry="3.19919" fill="#C3D0E4"/>
<ellipse cx="100.625" cy="115.159" rx="2.74977" ry="3.19919" fill="#C3D0E4"/>
<ellipse cx="315.109" cy="99.6203" rx="2.74977" ry="3.19919" fill="#C3D0E4"/>
<ellipse cx="170.745" cy="161.776" rx="2.29148" ry="3.19919" fill="#C3D0E4"/>
<ellipse cx="385.225" cy="147.151" rx="2.29148" ry="3.19919" fill="#C3D0E4"/>
<ellipse cx="312.815" cy="177.772" rx="2.29148" ry="3.65622" fill="#C3D0E4"/>
<ellipse cx="159.289" cy="262.779" rx="2.74977" ry="3.65622" fill="#C3D0E4"/>
<ellipse rx="2.55388" ry="3.25678" transform="matrix(0.936687 -0.350168 0.206122 0.978526 96.2861 86.7186)" fill="#C3D0E4"/>
<ellipse cx="384.311" cy="237.643" rx="2.29148" ry="3.19919" fill="#C3D0E4"/>
<ellipse cx="266.069" cy="309.853" rx="2.29148" ry="3.19919" fill="#C3D0E4"/>
<ellipse cx="193.203" cy="19.1833" rx="2.74977" ry="3.19919" fill="#C3D0E4"/>
<ellipse cx="263.777" cy="66.257" rx="2.74977" ry="3.65622" fill="#C3D0E4"/>
<ellipse cx="190.909" cy="97.792" rx="2.29148" ry="3.19919" fill="#C3D0E4"/>
<ellipse cx="405.393" cy="82.2529" rx="2.29148" ry="3.19919" fill="#C3D0E4"/>
<ellipse cx="289.445" cy="152.178" rx="2.74977" ry="3.65622" fill="#C3D0E4"/>
<ellipse cx="352.687" cy="249.982" rx="2.74977" ry="3.65622" fill="#C3D0E4"/>
<ellipse cx="144.621" cy="229.873" rx="2.74977" ry="3.65622" fill="#C3D0E4"/>
<ellipse rx="2.65241" ry="3.17705" transform="matrix(0.848112 -0.529817 0.332031 0.943269 309.707 240.032)" fill="#C3D0E4"/>
<ellipse rx="2.65241" ry="3.17705" transform="matrix(0.848112 -0.529817 0.332031 0.943269 299.793 196.265)" fill="#C3D0E4"/>
<ellipse rx="2.65241" ry="3.17705" transform="matrix(0.848112 -0.529817 0.332031 0.943269 348.148 274.275)" fill="#C3D0E4"/>
<ellipse rx="2.48336" ry="2.47896" transform="matrix(0.905847 -0.423604 0.425532 0.904943 1209.44 70.674)" fill="#C3D0E4"/>
<ellipse rx="2.48336" ry="2.47896" transform="matrix(0.905847 -0.423604 0.425532 0.904943 1257.75 138.392)" fill="#C3D0E4"/>
<ellipse rx="2.48336" ry="2.47896" transform="matrix(0.905847 -0.423604 0.425532 0.904943 1280.54 233.549)" fill="#C3D0E4"/>
<ellipse rx="2.48269" ry="2.47963" transform="matrix(0.850776 0.525529 -0.527637 0.84947 1443.5 410.809)" fill="#C3D0E4"/>
<ellipse rx="2.48269" ry="2.47963" transform="matrix(0.850776 0.525529 -0.527637 0.84947 1205.44 419.205)" fill="#C3D0E4"/>
<ellipse rx="2.48269" ry="2.47963" transform="matrix(0.850776 0.525529 -0.527637 0.84947 1431.25 532.46)" fill="#C3D0E4"/>
<ellipse rx="2.48269" ry="2.47963" transform="matrix(0.850776 0.525529 -0.527637 0.84947 1184.83 510.424)" fill="#C3D0E4"/>
<ellipse rx="2.48269" ry="2.47963" transform="matrix(0.850776 0.525529 -0.527637 0.84947 1410.64 623.679)" fill="#C3D0E4"/>
<ellipse rx="2.48269" ry="2.47963" transform="matrix(0.850776 0.525529 -0.527637 0.84947 1139.91 582.743)" fill="#C3D0E4"/>
<ellipse rx="2.48269" ry="2.47963" transform="matrix(0.850776 0.525529 -0.527637 0.84947 1365.72 695.998)" fill="#C3D0E4"/>
<ellipse rx="2.48269" ry="2.47963" transform="matrix(0.850776 0.525529 -0.527637 0.84947 1068.26 666.725)" fill="#C3D0E4"/>
<ellipse rx="2.48269" ry="2.47963" transform="matrix(0.850776 0.525529 -0.527637 0.84947 1227.55 393.028)" fill="#C3D0E4"/>
<ellipse rx="2.48269" ry="2.47963" transform="matrix(0.850776 0.525529 -0.527637 0.84947 1222.39 486.023)" fill="#C3D0E4"/>
<ellipse rx="2.48269" ry="2.47963" transform="matrix(0.850776 0.525529 -0.527637 0.84947 1208.42 549.287)" fill="#C3D0E4"/>
<ellipse rx="2.48269" ry="2.47963" transform="matrix(0.850776 0.525529 -0.527637 0.84947 1177.92 626.626)" fill="#C3D0E4"/>
<ellipse rx="2.48269" ry="2.47963" transform="matrix(0.850776 0.525529 -0.527637 0.84947 1110.44 697.635)" fill="#C3D0E4"/>
<ellipse cx="1091.92" cy="579.042" rx="2.29148" ry="2.74216" fill="#C3D0E4"/>
<ellipse cx="983.301" cy="630.229" rx="2.74977" ry="2.74216" fill="#C3D0E4"/>
<ellipse rx="2.47841" ry="2.48391" transform="matrix(0.315913 0.948788 -0.94931 0.314341 288.788 604.476)" fill="#C3D0E4"/>
<ellipse rx="2.47841" ry="2.48391" transform="matrix(0.315913 0.948788 -0.94931 0.314341 180.745 500.142)" fill="#C3D0E4"/>
<ellipse rx="2.47841" ry="2.48391" transform="matrix(0.315913 0.948788 -0.94931 0.314341 92.3507 389.301)" fill="#C3D0E4"/>
<ellipse rx="2.47841" ry="2.48391" transform="matrix(0.315913 0.948788 -0.94931 0.314341 192.913 620.557)" fill="#C3D0E4"/>
<ellipse rx="2.47841" ry="2.48391" transform="matrix(0.315913 0.948788 -0.94931 0.314341 3.5148 208.987)" fill="#C3D0E4"/>
<ellipse rx="2.47841" ry="2.48391" transform="matrix(0.315913 0.948788 -0.94931 0.314341 104.077 440.244)" fill="#C3D0E4"/>
<ellipse rx="2.47841" ry="2.48391" transform="matrix(0.315913 0.948788 -0.94931 0.314341 182.679 639.611)" fill="#C3D0E4"/>
<ellipse rx="2.47841" ry="2.48391" transform="matrix(0.315913 0.948788 -0.94931 0.314341 67.1046 255.811)" fill="#C3D0E4"/>
<ellipse rx="2.47841" ry="2.48391" transform="matrix(0.315913 0.948788 -0.94931 0.314341 145.702 455.179)" fill="#C3D0E4"/>
<ellipse rx="2.47841" ry="2.48391" transform="matrix(0.315913 0.948788 -0.94931 0.314341 119.773 233.15)" fill="#C3D0E4"/>
<ellipse rx="2.47809" ry="2.48423" transform="matrix(-0.232466 0.972605 -0.972894 -0.23125 387.655 697.852)" fill="#C3D0E4"/>
<ellipse cx="708.784" cy="690.1" rx="2.29148" ry="2.28514" fill="#C3D0E4"/>
<ellipse rx="2.48209" ry="2.48024" transform="matrix(0.797434 0.603406 -0.605531 0.795821 695.556 700.408)" fill="#C3D0E4"/>
<ellipse rx="2.48367" ry="2.47865" transform="matrix(0.930664 0.365875 -0.367633 0.929971 740.514 703.761)" fill="#C3D0E4"/>
<ellipse rx="2.48209" ry="2.48024" transform="matrix(0.797434 0.603406 -0.605531 0.795821 697.704 724.275)" fill="#C3D0E4"/>
<ellipse rx="2.48367" ry="2.47865" transform="matrix(0.930664 0.365875 -0.367633 0.929971 747.568 711.462)" fill="#C3D0E4"/>
<ellipse rx="2.48429" ry="2.47802" transform="matrix(0.978021 0.208508 -0.209616 0.977784 691.555 690.581)" fill="#C3D0E4"/>
<ellipse rx="2.48336" ry="2.47896" transform="matrix(0.905847 -0.423604 0.425532 0.904943 805.734 692.133)" fill="#C3D0E4"/>
<ellipse cx="728.948" cy="691.471" rx="2.29148" ry="2.74216" fill="#C3D0E4"/>
<ellipse cx="699.616" cy="688.271" rx="2.29148" ry="2.28514" fill="#C3D0E4"/>
<ellipse cx="667.996" cy="696.955" rx="2.74977" ry="2.74216" fill="#C3D0E4"/>
<ellipse rx="2.47809" ry="2.48423" transform="matrix(-0.232466 0.972605 -0.972894 -0.23125 285.155 656.507)" fill="#C3D0E4"/>
<ellipse rx="2.47809" ry="2.48423" transform="matrix(-0.232466 0.972605 -0.972894 -0.23125 269.03 706.164)" fill="#C3D0E4"/>
<ellipse rx="2.47841" ry="2.48391" transform="matrix(0.315913 0.948788 -0.94931 0.314341 293.023 564.781)" fill="#C3D0E4"/>
</svg>
