<?xml version="1.0" encoding="UTF-8" standalone="no"?>
<svg
   xmlns:dc="http://purl.org/dc/elements/1.1/"
   xmlns:cc="http://creativecommons.org/ns#"
   xmlns:rdf="http://www.w3.org/1999/02/22-rdf-syntax-ns#"
   xmlns:svg="http://www.w3.org/2000/svg"
   xmlns="http://www.w3.org/2000/svg"
   xmlns:sodipodi="http://sodipodi.sourceforge.net/DTD/sodipodi-0.dtd"
   xmlns:inkscape="http://www.inkscape.org/namespaces/inkscape"
   width="242.25"
   height="377.25391"
   viewBox="0 0 242.25 377.25391"
   version="1.1"
   id="svg520"
   sodipodi:docname="footer-pattern.svg"
   style="fill:none"
   inkscape:version="0.92.3 (unknown)">
  <metadata
     id="metadata526">
    <rdf:RDF>
      <cc:Work
         rdf:about="">
        <dc:format>image/svg+xml</dc:format>
        <dc:type
           rdf:resource="http://purl.org/dc/dcmitype/StillImage" />
        <dc:title></dc:title>
      </cc:Work>
    </rdf:RDF>
  </metadata>
  <defs
     id="defs524" />
  <sodipodi:namedview
     pagecolor="#ffffff"
     bordercolor="#666666"
     borderopacity="1"
     objecttolerance="10"
     gridtolerance="10"
     guidetolerance="10"
     inkscape:pageopacity="0"
     inkscape:pageshadow="2"
     inkscape:window-width="1853"
     inkscape:window-height="1025"
     id="namedview522"
     showgrid="false"
     fit-margin-top="0"
     fit-margin-left="0"
     fit-margin-right="0"
     fit-margin-bottom="0"
     inkscape:zoom="0.84236453"
     inkscape:cx="-38.761205"
     inkscape:cy="262.60431"
     inkscape:window-x="1987"
     inkscape:window-y="27"
     inkscape:window-maximized="1"
     inkscape:current-layer="svg520" />
  <circle
     cx="1.5038986"
     cy="-181.5"
     r="0.75"
     id="circle2"
     transform="rotate(90)"
     style="fill:#8493ad" />
  <circle
     cx="1.5038986"
     cy="-166.5"
     r="0.75"
     id="circle4"
     transform="rotate(90)"
     style="fill:#8493ad" />
  <circle
     cx="1.5038986"
     cy="-151.5"
     r="0.75"
     id="circle6"
     transform="rotate(90)"
     style="fill:#8493ad" />
  <circle
     cx="1.5038986"
     cy="-136.5"
     r="0.75"
     id="circle8"
     transform="rotate(90)"
     style="fill:#8493ad" />
  <circle
     cx="1.5"
     cy="-121.50001"
     id="ellipse10"
     r="1.5"
     transform="rotate(90)"
     style="fill:#8493ad" />
  <circle
     cx="1.5"
     cy="-106.50001"
     id="ellipse12"
     r="1.5"
     transform="rotate(90)"
     style="fill:#8493ad" />
  <circle
     cx="1.5"
     cy="-91.500008"
     id="ellipse14"
     r="1.5"
     transform="rotate(90)"
     style="fill:#8493ad" />
  <circle
     cx="1.5038986"
     cy="-76.500008"
     r="0.75"
     id="circle16"
     transform="rotate(90)"
     style="fill:#8493ad" />
  <circle
     cx="1.5038986"
     cy="-61.500008"
     r="0.75"
     id="circle18"
     transform="rotate(90)"
     style="fill:#8493ad" />
  <circle
     cx="1.5038986"
     cy="-46.500008"
     r="0.75"
     id="circle20"
     transform="rotate(90)"
     style="fill:#8493ad" />
  <circle
     cx="1.5"
     cy="-31.499998"
     id="ellipse22"
     r="1.5"
     transform="rotate(90)"
     style="fill:#8493ad" />
  <circle
     cx="1.5038986"
     cy="-16.499998"
     r="0.75"
     id="circle24"
     transform="rotate(90)"
     style="fill:#8493ad" />
  <circle
     cx="1.5038986"
     cy="-1.5"
     r="0.75"
     id="circle26"
     transform="rotate(90)"
     style="fill:#8493ad" />
  <circle
     cx="16.503897"
     cy="-211.5"
     r="0.75"
     id="circle28"
     transform="rotate(90)"
     style="fill:#8493ad" />
  <circle
     cx="16.499998"
     cy="-196.5"
     id="ellipse30"
     r="1.5"
     transform="rotate(90)"
     style="fill:#8493ad" />
  <circle
     cx="16.503897"
     cy="-181.5"
     r="0.75"
     id="circle32"
     transform="rotate(90)"
     style="fill:#8493ad" />
  <circle
     cx="16.503897"
     cy="-166.5"
     r="0.75"
     id="circle34"
     transform="rotate(90)"
     style="fill:#8493ad" />
  <circle
     cx="16.503897"
     cy="-151.5"
     r="0.75"
     id="circle36"
     transform="rotate(90)"
     style="fill:#8493ad" />
  <circle
     cx="16.503897"
     cy="-136.5"
     r="0.75"
     id="circle38"
     transform="rotate(90)"
     style="fill:#8493ad" />
  <circle
     cx="16.503897"
     cy="-121.50001"
     r="0.75"
     id="circle40"
     transform="rotate(90)"
     style="fill:#8493ad" />
  <circle
     cx="16.503897"
     cy="-106.50001"
     r="0.75"
     id="circle42"
     transform="rotate(90)"
     style="fill:#8493ad" />
  <circle
     cx="16.503897"
     cy="-91.500008"
     r="0.75"
     id="circle44"
     transform="rotate(90)"
     style="fill:#8493ad" />
  <circle
     cx="16.499998"
     cy="-76.500008"
     id="ellipse46"
     r="1.5"
     transform="rotate(90)"
     style="fill:#8493ad" />
  <circle
     cx="16.503897"
     cy="-61.500008"
     r="0.75"
     id="circle48"
     transform="rotate(90)"
     style="fill:#8493ad" />
  <circle
     cx="16.503897"
     cy="-46.500008"
     r="0.75"
     id="circle50"
     transform="rotate(90)"
     style="fill:#8493ad" />
  <circle
     cx="16.503897"
     cy="-31.499998"
     r="0.75"
     id="circle52"
     transform="rotate(90)"
     style="fill:#8493ad" />
  <circle
     cx="16.503897"
     cy="-16.499998"
     r="0.75"
     id="circle54"
     transform="rotate(90)"
     style="fill:#8493ad" />
  <circle
     cx="16.499998"
     cy="-1.5"
     id="ellipse56"
     r="1.5"
     transform="rotate(90)"
     style="fill:#8493ad" />
  <circle
     cx="31.503897"
     cy="-226.5"
     r="0.75"
     id="circle58"
     transform="rotate(90)"
     style="fill:#8493ad" />
  <circle
     cx="31.503897"
     cy="-211.5"
     r="0.75"
     id="circle60"
     transform="rotate(90)"
     style="fill:#8493ad" />
  <circle
     cx="31.503897"
     cy="-196.5"
     r="0.75"
     id="circle62"
     transform="rotate(90)"
     style="fill:#8493ad" />
  <circle
     cx="31.503897"
     cy="-181.5"
     r="0.75"
     id="circle64"
     transform="rotate(90)"
     style="fill:#8493ad" />
  <circle
     cx="31.499998"
     cy="-166.5"
     id="ellipse66"
     r="1.5"
     transform="rotate(90)"
     style="fill:#8493ad" />
  <circle
     cx="31.499998"
     cy="-151.5"
     id="ellipse68"
     r="1.5"
     transform="rotate(90)"
     style="fill:#8493ad" />
  <circle
     cx="31.503897"
     cy="-136.5"
     r="0.75"
     id="circle70"
     transform="rotate(90)"
     style="fill:#8493ad" />
  <circle
     cx="31.503897"
     cy="-121.50001"
     r="0.75"
     id="circle72"
     transform="rotate(90)"
     style="fill:#8493ad" />
  <circle
     cx="31.499998"
     cy="-106.50001"
     id="ellipse74"
     r="1.5"
     transform="rotate(90)"
     style="fill:#8493ad" />
  <circle
     cx="31.503897"
     cy="-91.500008"
     r="0.75"
     id="circle76"
     transform="rotate(90)"
     style="fill:#8493ad" />
  <circle
     cx="31.499998"
     cy="-76.500008"
     id="ellipse78"
     r="1.5"
     transform="rotate(90)"
     style="fill:#8493ad" />
  <circle
     cx="31.503897"
     cy="-61.500008"
     r="0.75"
     id="circle80"
     transform="rotate(90)"
     style="fill:#8493ad" />
  <circle
     cx="31.503897"
     cy="-46.500008"
     r="0.75"
     id="circle82"
     transform="rotate(90)"
     style="fill:#8493ad" />
  <circle
     cx="31.503897"
     cy="-31.499998"
     r="0.75"
     id="circle84"
     transform="rotate(90)"
     style="fill:#8493ad" />
  <circle
     cx="31.503897"
     cy="-16.499998"
     r="0.75"
     id="circle86"
     transform="rotate(90)"
     style="fill:#8493ad" />
  <circle
     cx="31.503897"
     cy="-1.5"
     r="0.75"
     id="circle88"
     transform="rotate(90)"
     style="fill:#8493ad" />
  <circle
     cx="46.503906"
     cy="-241.5"
     r="0.75"
     id="circle90"
     transform="rotate(90)"
     style="fill:#8493ad" />
  <circle
     cx="46.503906"
     cy="-226.5"
     r="0.75"
     id="circle92"
     transform="rotate(90)"
     style="fill:#8493ad" />
  <circle
     cx="46.503906"
     cy="-211.5"
     r="0.75"
     id="circle94"
     transform="rotate(90)"
     style="fill:#8493ad" />
  <circle
     cx="46.500008"
     cy="-196.5"
     id="ellipse96"
     r="1.5"
     transform="rotate(90)"
     style="fill:#8493ad" />
  <circle
     cx="46.503906"
     cy="-181.5"
     r="0.75"
     id="circle98"
     transform="rotate(90)"
     style="fill:#8493ad" />
  <circle
     cx="46.500004"
     cy="-166.5"
     id="ellipse100"
     r="1.5"
     transform="rotate(90)"
     style="fill:#8493ad" />
  <circle
     cx="46.503902"
     cy="-151.5"
     r="0.75"
     id="circle102"
     transform="rotate(90)"
     style="fill:#8493ad" />
  <circle
     cx="46.503902"
     cy="-136.5"
     r="0.75"
     id="circle104"
     transform="rotate(90)"
     style="fill:#8493ad" />
  <circle
     cx="46.500004"
     cy="-121.50001"
     id="ellipse106"
     r="1.5"
     transform="rotate(90)"
     style="fill:#8493ad" />
  <circle
     cx="46.503902"
     cy="-106.50001"
     r="0.75"
     id="circle108"
     transform="rotate(90)"
     style="fill:#8493ad" />
  <circle
     cx="46.503906"
     cy="-91.500008"
     r="0.75"
     id="circle110"
     transform="rotate(90)"
     style="fill:#8493ad" />
  <circle
     cx="46.503906"
     cy="-76.500008"
     r="0.75"
     id="circle112"
     transform="rotate(90)"
     style="fill:#8493ad" />
  <circle
     cx="46.503906"
     cy="-61.500008"
     r="0.75"
     id="circle114"
     transform="rotate(90)"
     style="fill:#8493ad" />
  <circle
     cx="46.503906"
     cy="-46.500008"
     r="0.75"
     id="circle116"
     transform="rotate(90)"
     style="fill:#8493ad" />
  <circle
     cx="46.500008"
     cy="-31.499998"
     id="ellipse118"
     r="1.5"
     transform="rotate(90)"
     style="fill:#8493ad" />
  <circle
     cx="46.503906"
     cy="-16.499998"
     r="0.75"
     id="circle120"
     transform="rotate(90)"
     style="fill:#8493ad" />
  <circle
     cx="46.503906"
     cy="-1.5"
     r="0.75"
     id="circle122"
     transform="rotate(90)"
     style="fill:#8493ad" />
  <circle
     cx="61.503906"
     cy="-241.5"
     r="0.75"
     id="circle124"
     transform="rotate(90)"
     style="fill:#8493ad" />
  <circle
     cx="61.503906"
     cy="-226.5"
     r="0.75"
     id="circle126"
     transform="rotate(90)"
     style="fill:#8493ad" />
  <circle
     cx="61.503906"
     cy="-211.5"
     r="0.75"
     id="circle128"
     transform="rotate(90)"
     style="fill:#8493ad" />
  <circle
     cx="61.503906"
     cy="-196.5"
     r="0.75"
     id="circle130"
     transform="rotate(90)"
     style="fill:#8493ad" />
  <circle
     cx="61.500008"
     cy="-181.5"
     id="ellipse132"
     r="1.5"
     transform="rotate(90)"
     style="fill:#8493ad" />
  <circle
     cx="61.500004"
     cy="-166.5"
     id="ellipse134"
     r="1.5"
     transform="rotate(90)"
     style="fill:#8493ad" />
  <circle
     cx="61.503902"
     cy="-151.5"
     r="0.75"
     id="circle136"
     transform="rotate(90)"
     style="fill:#8493ad" />
  <circle
     cx="61.503902"
     cy="-136.5"
     r="0.75"
     id="circle138"
     transform="rotate(90)"
     style="fill:#8493ad" />
  <circle
     cx="61.500004"
     cy="-121.50001"
     id="ellipse140"
     r="1.5"
     transform="rotate(90)"
     style="fill:#8493ad" />
  <circle
     cx="61.503902"
     cy="-106.50001"
     r="0.75"
     id="circle142"
     transform="rotate(90)"
     style="fill:#8493ad" />
  <circle
     cx="61.503906"
     cy="-91.500008"
     r="0.75"
     id="circle144"
     transform="rotate(90)"
     style="fill:#8493ad" />
  <circle
     cx="61.503906"
     cy="-76.500008"
     r="0.75"
     id="circle146"
     transform="rotate(90)"
     style="fill:#8493ad" />
  <circle
     cx="61.503906"
     cy="-61.500004"
     r="0.75"
     id="circle148"
     transform="rotate(90)"
     style="fill:#8493ad" />
  <circle
     cx="61.503906"
     cy="-46.500004"
     r="0.75"
     id="circle150"
     transform="rotate(90)"
     style="fill:#8493ad" />
  <circle
     cx="61.500008"
     cy="-31.499998"
     id="ellipse152"
     r="1.5"
     transform="rotate(90)"
     style="fill:#8493ad" />
  <circle
     cx="61.503906"
     cy="-16.499998"
     r="0.75"
     id="circle154"
     transform="rotate(90)"
     style="fill:#8493ad" />
  <circle
     cx="61.503906"
     cy="-1.5"
     r="0.75"
     id="circle156"
     transform="rotate(90)"
     style="fill:#8493ad" />
  <circle
     cx="76.503906"
     cy="-211.5"
     r="0.75"
     id="circle158"
     transform="rotate(90)"
     style="fill:#8493ad" />
  <circle
     cx="76.503906"
     cy="-196.5"
     r="0.75"
     id="circle160"
     transform="rotate(90)"
     style="fill:#8493ad" />
  <circle
     cx="76.503906"
     cy="-181.5"
     r="0.75"
     id="circle162"
     transform="rotate(90)"
     style="fill:#8493ad" />
  <circle
     cx="76.503906"
     cy="-166.5"
     r="0.75"
     id="circle164"
     transform="rotate(90)"
     style="fill:#8493ad" />
  <circle
     cx="76.503906"
     cy="-151.5"
     r="0.75"
     id="circle166"
     transform="rotate(90)"
     style="fill:#8493ad" />
  <circle
     cx="76.503906"
     cy="-136.5"
     r="0.75"
     id="circle168"
     transform="rotate(90)"
     style="fill:#8493ad" />
  <circle
     cx="76.503906"
     cy="-121.50001"
     r="0.75"
     id="circle170"
     transform="rotate(90)"
     style="fill:#8493ad" />
  <circle
     cx="76.503906"
     cy="-106.50001"
     r="0.75"
     id="circle172"
     transform="rotate(90)"
     style="fill:#8493ad" />
  <circle
     cx="76.503906"
     cy="-91.500008"
     r="0.75"
     id="circle174"
     transform="rotate(90)"
     style="fill:#8493ad" />
  <circle
     cx="76.500008"
     cy="-76.500008"
     id="ellipse176"
     r="1.5"
     transform="rotate(90)"
     style="fill:#8493ad" />
  <circle
     cx="76.503906"
     cy="-61.500004"
     r="0.75"
     id="circle178"
     transform="rotate(90)"
     style="fill:#8493ad" />
  <circle
     cx="76.503906"
     cy="-46.500004"
     r="0.75"
     id="circle180"
     transform="rotate(90)"
     style="fill:#8493ad" />
  <circle
     cx="76.503906"
     cy="-31.499998"
     r="0.75"
     id="circle182"
     transform="rotate(90)"
     style="fill:#8493ad" />
  <circle
     cx="76.503906"
     cy="-16.499998"
     r="0.75"
     id="circle184"
     transform="rotate(90)"
     style="fill:#8493ad" />
  <circle
     cx="76.503906"
     cy="-1.5"
     r="0.75"
     id="circle186"
     transform="rotate(90)"
     style="fill:#8493ad" />
  <circle
     cx="91.503914"
     cy="-211.5"
     r="0.75"
     id="circle188"
     transform="rotate(90)"
     style="fill:#8493ad" />
  <circle
     cx="91.503914"
     cy="-196.5"
     r="0.75"
     id="circle190"
     transform="rotate(90)"
     style="fill:#8493ad" />
  <circle
     cx="91.503914"
     cy="-181.5"
     r="0.75"
     id="circle192"
     transform="rotate(90)"
     style="fill:#8493ad" />
  <circle
     cx="91.503914"
     cy="-166.5"
     r="0.75"
     id="circle194"
     transform="rotate(90)"
     style="fill:#8493ad" />
  <circle
     cx="91.503914"
     cy="-151.5"
     r="0.75"
     id="circle196"
     transform="rotate(90)"
     style="fill:#8493ad" />
  <circle
     cx="91.499916"
     cy="-136.5"
     id="ellipse198"
     r="1.5"
     transform="rotate(90)"
     style="fill:#8493ad" />
  <circle
     cx="91.499916"
     cy="-121.50001"
     id="ellipse200"
     r="1.5"
     transform="rotate(90)"
     style="fill:#8493ad" />
  <circle
     cx="91.499916"
     cy="-106.50001"
     id="ellipse202"
     r="1.5"
     transform="rotate(90)"
     style="fill:#8493ad" />
  <circle
     cx="91.503914"
     cy="-91.500008"
     r="0.75"
     id="circle204"
     transform="rotate(90)"
     style="fill:#8493ad" />
  <circle
     cx="91.503914"
     cy="-76.500008"
     r="0.75"
     id="circle206"
     transform="rotate(90)"
     style="fill:#8493ad" />
  <circle
     cx="91.503914"
     cy="-61.500004"
     r="0.75"
     id="circle208"
     transform="rotate(90)"
     style="fill:#8493ad" />
  <circle
     cx="91.503914"
     cy="-46.500004"
     r="0.75"
     id="circle210"
     transform="rotate(90)"
     style="fill:#8493ad" />
  <circle
     cx="91.499916"
     cy="-31.499998"
     id="ellipse212"
     r="1.5"
     transform="rotate(90)"
     style="fill:#8493ad" />
  <circle
     cx="91.499916"
     cy="-16.499998"
     id="ellipse214"
     r="1.5"
     transform="rotate(90)"
     style="fill:#8493ad" />
  <circle
     cx="91.503914"
     cy="-1.5"
     r="0.75"
     id="circle216"
     transform="rotate(90)"
     style="fill:#8493ad" />
  <circle
     cx="106.50391"
     cy="-226.5"
     r="0.75"
     id="circle218"
     transform="rotate(90)"
     style="fill:#8493ad" />
  <circle
     cx="106.50391"
     cy="-211.5"
     r="0.75"
     id="circle220"
     transform="rotate(90)"
     style="fill:#8493ad" />
  <circle
     cx="106.49992"
     cy="-196.5"
     id="ellipse222"
     r="1.5"
     transform="rotate(90)"
     style="fill:#8493ad" />
  <circle
     cx="106.50391"
     cy="-181.5"
     r="0.75"
     id="circle224"
     transform="rotate(90)"
     style="fill:#8493ad" />
  <circle
     cx="106.49992"
     cy="-166.5"
     id="ellipse226"
     r="1.5"
     transform="rotate(90)"
     style="fill:#8493ad" />
  <circle
     cx="106.49992"
     cy="-151.5"
     id="ellipse228"
     r="1.5"
     transform="rotate(90)"
     style="fill:#8493ad" />
  <circle
     cx="106.50391"
     cy="-136.5"
     r="0.75"
     id="circle230"
     transform="rotate(90)"
     style="fill:#8493ad" />
  <circle
     cx="106.50391"
     cy="-121.50001"
     r="0.75"
     id="circle232"
     transform="rotate(90)"
     style="fill:#8493ad" />
  <circle
     cx="106.50391"
     cy="-106.50001"
     r="0.75"
     id="circle234"
     transform="rotate(90)"
     style="fill:#8493ad" />
  <circle
     cx="106.50391"
     cy="-91.500008"
     r="0.75"
     id="circle236"
     transform="rotate(90)"
     style="fill:#8493ad" />
  <circle
     cx="106.50391"
     cy="-76.500008"
     r="0.75"
     id="circle238"
     transform="rotate(90)"
     style="fill:#8493ad" />
  <circle
     cx="106.50391"
     cy="-61.500008"
     r="0.75"
     id="circle240"
     transform="rotate(90)"
     style="fill:#8493ad" />
  <circle
     cx="106.50391"
     cy="-46.500008"
     r="0.75"
     id="circle242"
     transform="rotate(90)"
     style="fill:#8493ad" />
  <circle
     cx="106.50391"
     cy="-31.499998"
     r="0.75"
     id="circle244"
     transform="rotate(90)"
     style="fill:#8493ad" />
  <circle
     cx="106.50391"
     cy="-16.499998"
     r="0.75"
     id="circle246"
     transform="rotate(90)"
     style="fill:#8493ad" />
  <circle
     cx="106.50391"
     cy="-1.5"
     r="0.75"
     id="circle248"
     transform="rotate(90)"
     style="fill:#8493ad" />
  <circle
     cx="121.50391"
     cy="-211.5"
     r="0.75"
     id="circle250"
     transform="rotate(90)"
     style="fill:#8493ad" />
  <circle
     cx="121.49991"
     cy="-196.5"
     id="ellipse252"
     r="1.5"
     transform="rotate(90)"
     style="fill:#8493ad" />
  <circle
     cx="121.50391"
     cy="-181.5"
     r="0.75"
     id="circle254"
     transform="rotate(90)"
     style="fill:#8493ad" />
  <circle
     cx="121.50391"
     cy="-166.5"
     r="0.75"
     id="circle256"
     transform="rotate(90)"
     style="fill:#8493ad" />
  <circle
     cx="121.50391"
     cy="-151.5"
     r="0.75"
     id="circle258"
     transform="rotate(90)"
     style="fill:#8493ad" />
  <circle
     cx="121.50391"
     cy="-136.5"
     r="0.75"
     id="circle260"
     transform="rotate(90)"
     style="fill:#8493ad" />
  <circle
     cx="121.49991"
     cy="-121.50001"
     id="ellipse262"
     r="1.5"
     transform="rotate(90)"
     style="fill:#8493ad" />
  <circle
     cx="121.49991"
     cy="-106.50001"
     id="ellipse264"
     r="1.5"
     transform="rotate(90)"
     style="fill:#8493ad" />
  <circle
     cx="121.50391"
     cy="-91.500008"
     r="0.75"
     id="circle266"
     transform="rotate(90)"
     style="fill:#8493ad" />
  <circle
     cx="121.50391"
     cy="-76.500008"
     r="0.75"
     id="circle268"
     transform="rotate(90)"
     style="fill:#8493ad" />
  <circle
     cx="121.50391"
     cy="-61.500008"
     r="0.75"
     id="circle270"
     transform="rotate(90)"
     style="fill:#8493ad" />
  <circle
     cx="121.49991"
     cy="-46.500008"
     id="ellipse272"
     r="1.5"
     transform="rotate(90)"
     style="fill:#8493ad" />
  <circle
     cx="121.49991"
     cy="-31.499998"
     id="ellipse274"
     r="1.5"
     transform="rotate(90)"
     style="fill:#8493ad" />
  <circle
     cx="121.50391"
     cy="-16.499998"
     r="0.75"
     id="circle276"
     transform="rotate(90)"
     style="fill:#8493ad" />
  <circle
     cx="121.49991"
     cy="-1.5"
     id="ellipse278"
     r="1.5"
     transform="rotate(90)"
     style="fill:#8493ad" />
  <circle
     cx="136.50391"
     cy="-151.5"
     r="0.75"
     id="circle280"
     transform="rotate(90)"
     style="fill:#8493ad" />
  <circle
     cx="136.50391"
     cy="-136.5"
     r="0.75"
     id="circle282"
     transform="rotate(90)"
     style="fill:#8493ad" />
  <circle
     cx="136.50391"
     cy="-121.50001"
     r="0.75"
     id="circle284"
     transform="rotate(90)"
     style="fill:#8493ad" />
  <circle
     cx="136.49991"
     cy="-106.50001"
     id="ellipse286"
     r="1.5"
     transform="rotate(90)"
     style="fill:#8493ad" />
  <circle
     cx="136.49991"
     cy="-91.500008"
     id="ellipse288"
     r="1.5"
     transform="rotate(90)"
     style="fill:#8493ad" />
  <circle
     cx="136.50391"
     cy="-76.500008"
     r="0.75"
     id="circle290"
     transform="rotate(90)"
     style="fill:#8493ad" />
  <circle
     cx="136.50391"
     cy="-61.500008"
     r="0.75"
     id="circle292"
     transform="rotate(90)"
     style="fill:#8493ad" />
  <circle
     cx="136.49991"
     cy="-46.500008"
     id="ellipse294"
     r="1.5"
     transform="rotate(90)"
     style="fill:#8493ad" />
  <circle
     cx="136.49991"
     cy="-31.499998"
     id="ellipse296"
     r="1.5"
     transform="rotate(90)"
     style="fill:#8493ad" />
  <circle
     cx="136.50391"
     cy="-16.499998"
     r="0.75"
     id="circle298"
     transform="rotate(90)"
     style="fill:#8493ad" />
  <circle
     cx="136.49991"
     cy="-1.5"
     id="ellipse300"
     r="1.5"
     transform="rotate(90)"
     style="fill:#8493ad" />
  <circle
     cx="151.50391"
     cy="-136.5"
     r="0.75"
     id="circle302"
     transform="rotate(90)"
     style="fill:#8493ad" />
  <circle
     cx="151.49991"
     cy="-121.50001"
     id="ellipse304"
     r="1.5"
     transform="rotate(90)"
     style="fill:#8493ad" />
  <circle
     cx="151.50391"
     cy="-106.50001"
     r="0.75"
     id="circle306"
     transform="rotate(90)"
     style="fill:#8493ad" />
  <circle
     cx="151.49991"
     cy="-91.500008"
     id="ellipse308"
     r="1.5"
     transform="rotate(90)"
     style="fill:#8493ad" />
  <circle
     cx="151.50391"
     cy="-76.500008"
     r="0.75"
     id="circle310"
     transform="rotate(90)"
     style="fill:#8493ad" />
  <circle
     cx="151.50391"
     cy="-61.500008"
     r="0.75"
     id="circle312"
     transform="rotate(90)"
     style="fill:#8493ad" />
  <circle
     cx="151.50391"
     cy="-46.500008"
     r="0.75"
     id="circle314"
     transform="rotate(90)"
     style="fill:#8493ad" />
  <circle
     cx="151.50391"
     cy="-31.499998"
     r="0.75"
     id="circle316"
     transform="rotate(90)"
     style="fill:#8493ad" />
  <circle
     cx="151.50391"
     cy="-16.499998"
     r="0.75"
     id="circle318"
     transform="rotate(90)"
     style="fill:#8493ad" />
  <circle
     cx="151.49991"
     cy="-1.5"
     id="ellipse320"
     r="1.5"
     transform="rotate(90)"
     style="fill:#8493ad" />
  <circle
     cx="166.50391"
     cy="-136.5"
     r="0.75"
     id="circle322"
     transform="rotate(90)"
     style="fill:#8493ad" />
  <circle
     cx="166.49992"
     cy="-121.50001"
     id="ellipse324"
     r="1.5"
     transform="rotate(90)"
     style="fill:#8493ad" />
  <circle
     cx="166.50391"
     cy="-106.50001"
     r="0.75"
     id="circle326"
     transform="rotate(90)"
     style="fill:#8493ad" />
  <circle
     cx="166.50391"
     cy="-91.500008"
     r="0.75"
     id="circle328"
     transform="rotate(90)"
     style="fill:#8493ad" />
  <circle
     cx="166.49992"
     cy="-76.500008"
     id="ellipse330"
     r="1.5"
     transform="rotate(90)"
     style="fill:#8493ad" />
  <circle
     cx="166.50391"
     cy="-61.500008"
     r="0.75"
     id="circle332"
     transform="rotate(90)"
     style="fill:#8493ad" />
  <circle
     cx="166.50391"
     cy="-46.500008"
     r="0.75"
     id="circle334"
     transform="rotate(90)"
     style="fill:#8493ad" />
  <circle
     cx="166.50391"
     cy="-31.499998"
     r="0.75"
     id="circle336"
     transform="rotate(90)"
     style="fill:#8493ad" />
  <circle
     cx="166.50391"
     cy="-16.499998"
     r="0.75"
     id="circle338"
     transform="rotate(90)"
     style="fill:#8493ad" />
  <circle
     cx="166.50391"
     cy="-1.5"
     r="0.75"
     id="circle340"
     transform="rotate(90)"
     style="fill:#8493ad" />
  <circle
     cx="181.50391"
     cy="-151.5"
     r="0.75"
     id="circle342"
     transform="rotate(90)"
     style="fill:#8493ad" />
  <circle
     cx="181.50391"
     cy="-136.5"
     r="0.75"
     id="circle344"
     transform="rotate(90)"
     style="fill:#8493ad" />
  <circle
     cx="181.49992"
     cy="-121.50001"
     id="ellipse346"
     r="1.5"
     transform="rotate(90)"
     style="fill:#8493ad" />
  <circle
     cx="181.49992"
     cy="-106.50001"
     id="ellipse348"
     r="1.5"
     transform="rotate(90)"
     style="fill:#8493ad" />
  <circle
     cx="181.50391"
     cy="-91.500008"
     r="0.75"
     id="circle350"
     transform="rotate(90)"
     style="fill:#8493ad" />
  <circle
     cx="181.50391"
     cy="-76.500008"
     r="0.75"
     id="circle352"
     transform="rotate(90)"
     style="fill:#8493ad" />
  <circle
     cx="181.50391"
     cy="-61.500008"
     r="0.75"
     id="circle354"
     transform="rotate(90)"
     style="fill:#8493ad" />
  <circle
     cx="181.50391"
     cy="-46.500008"
     r="0.75"
     id="circle356"
     transform="rotate(90)"
     style="fill:#8493ad" />
  <circle
     cx="181.50391"
     cy="-31.499998"
     r="0.75"
     id="circle358"
     transform="rotate(90)"
     style="fill:#8493ad" />
  <circle
     cx="181.50391"
     cy="-16.499998"
     r="0.75"
     id="circle360"
     transform="rotate(90)"
     style="fill:#8493ad" />
  <circle
     cx="181.49992"
     cy="-1.5"
     id="ellipse362"
     r="1.5"
     transform="rotate(90)"
     style="fill:#8493ad" />
  <circle
     cx="196.49991"
     cy="-106.50001"
     id="ellipse364"
     r="1.5"
     transform="rotate(90)"
     style="fill:#8493ad" />
  <circle
     cx="196.50391"
     cy="-91.500008"
     r="0.75"
     id="circle366"
     transform="rotate(90)"
     style="fill:#8493ad" />
  <circle
     cx="196.49991"
     cy="-76.500008"
     id="ellipse368"
     r="1.5"
     transform="rotate(90)"
     style="fill:#8493ad" />
  <circle
     cx="196.50391"
     cy="-61.500008"
     r="0.75"
     id="circle370"
     transform="rotate(90)"
     style="fill:#8493ad" />
  <circle
     cx="196.50391"
     cy="-46.500008"
     r="0.75"
     id="circle372"
     transform="rotate(90)"
     style="fill:#8493ad" />
  <circle
     cx="196.50391"
     cy="-31.499998"
     r="0.75"
     id="circle374"
     transform="rotate(90)"
     style="fill:#8493ad" />
  <circle
     cx="196.50391"
     cy="-16.499998"
     r="0.75"
     id="circle376"
     transform="rotate(90)"
     style="fill:#8493ad" />
  <circle
     cx="196.49991"
     cy="-1.5"
     id="ellipse378"
     r="1.5"
     transform="rotate(90)"
     style="fill:#8493ad" />
  <circle
     cx="211.49991"
     cy="-106.50001"
     id="ellipse380"
     r="1.5"
     transform="rotate(90)"
     style="fill:#8493ad" />
  <circle
     cx="211.49991"
     cy="-91.500008"
     id="ellipse382"
     r="1.5"
     transform="rotate(90)"
     style="fill:#8493ad" />
  <circle
     cx="211.49991"
     cy="-76.500008"
     id="ellipse384"
     r="1.5"
     transform="rotate(90)"
     style="fill:#8493ad" />
  <circle
     cx="211.50391"
     cy="-61.500008"
     r="0.75"
     id="circle386"
     transform="rotate(90)"
     style="fill:#8493ad" />
  <circle
     cx="211.50391"
     cy="-46.500008"
     r="0.75"
     id="circle388"
     transform="rotate(90)"
     style="fill:#8493ad" />
  <circle
     cx="211.50391"
     cy="-31.499998"
     r="0.75"
     id="circle390"
     transform="rotate(90)"
     style="fill:#8493ad" />
  <circle
     cx="211.50391"
     cy="-16.499998"
     r="0.75"
     id="circle392"
     transform="rotate(90)"
     style="fill:#8493ad" />
  <circle
     cx="211.50391"
     cy="-1.5"
     r="0.75"
     id="circle394"
     transform="rotate(90)"
     style="fill:#8493ad" />
  <circle
     cx="226.50391"
     cy="-91.500008"
     r="0.75"
     id="circle396"
     transform="rotate(90)"
     style="fill:#8493ad" />
  <circle
     cx="226.49991"
     cy="-76.500008"
     id="ellipse398"
     r="1.5"
     transform="rotate(90)"
     style="fill:#8493ad" />
  <circle
     cx="226.50391"
     cy="-61.500008"
     r="0.75"
     id="circle400"
     transform="rotate(90)"
     style="fill:#8493ad" />
  <circle
     cx="226.50391"
     cy="-46.500008"
     r="0.75"
     id="circle402"
     transform="rotate(90)"
     style="fill:#8493ad" />
  <circle
     cx="226.50391"
     cy="-31.499998"
     r="0.75"
     id="circle404"
     transform="rotate(90)"
     style="fill:#8493ad" />
  <circle
     cx="226.49991"
     cy="-16.499998"
     id="ellipse406"
     r="1.5"
     transform="rotate(90)"
     style="fill:#8493ad" />
  <circle
     cx="226.49991"
     cy="-1.5"
     id="ellipse408"
     r="1.5"
     transform="rotate(90)"
     style="fill:#8493ad" />
  <circle
     cx="241.50392"
     cy="-91.500008"
     r="0.75"
     id="circle410"
     transform="rotate(90)"
     style="fill:#8493ad" />
  <circle
     cx="241.50392"
     cy="-76.500008"
     r="0.75"
     id="circle412"
     transform="rotate(90)"
     style="fill:#8493ad" />
  <circle
     cx="241.50392"
     cy="-61.500008"
     r="0.75"
     id="circle414"
     transform="rotate(90)"
     style="fill:#8493ad" />
  <circle
     cx="241.50392"
     cy="-46.500008"
     r="0.75"
     id="circle416"
     transform="rotate(90)"
     style="fill:#8493ad" />
  <circle
     cx="241.50392"
     cy="-31.499998"
     r="0.75"
     id="circle418"
     transform="rotate(90)"
     style="fill:#8493ad" />
  <circle
     cx="241.50392"
     cy="-16.499998"
     r="0.75"
     id="circle420"
     transform="rotate(90)"
     style="fill:#8493ad" />
  <circle
     cx="241.49992"
     cy="-1.5"
     id="ellipse422"
     r="1.5"
     transform="rotate(90)"
     style="fill:#8493ad" />
  <circle
     cx="256.50391"
     cy="-76.500008"
     r="0.75"
     id="circle424"
     transform="rotate(90)"
     style="fill:#8493ad" />
  <circle
     cx="256.50391"
     cy="-61.500008"
     r="0.75"
     id="circle426"
     transform="rotate(90)"
     style="fill:#8493ad" />
  <circle
     cx="256.49991"
     cy="-46.500008"
     id="ellipse428"
     r="1.5"
     transform="rotate(90)"
     style="fill:#8493ad" />
  <circle
     cx="256.50391"
     cy="-31.499998"
     r="0.75"
     id="circle430"
     transform="rotate(90)"
     style="fill:#8493ad" />
  <circle
     cx="256.50391"
     cy="-16.499998"
     r="0.75"
     id="circle432"
     transform="rotate(90)"
     style="fill:#8493ad" />
  <circle
     cx="256.49991"
     cy="-1.5"
     id="ellipse434"
     r="1.5"
     transform="rotate(90)"
     style="fill:#8493ad" />
  <circle
     cx="271.50391"
     cy="-91.500008"
     r="0.75"
     id="circle436"
     transform="rotate(90)"
     style="fill:#8493ad" />
  <circle
     cx="271.49991"
     cy="-76.500008"
     id="ellipse438"
     r="1.5"
     transform="rotate(90)"
     style="fill:#8493ad" />
  <circle
     cx="271.50391"
     cy="-61.500008"
     r="0.75"
     id="circle440"
     transform="rotate(90)"
     style="fill:#8493ad" />
  <circle
     cx="271.50391"
     cy="-46.500008"
     r="0.75"
     id="circle442"
     transform="rotate(90)"
     style="fill:#8493ad" />
  <circle
     cx="271.50391"
     cy="-31.499998"
     r="0.75"
     id="circle444"
     transform="rotate(90)"
     style="fill:#8493ad" />
  <circle
     cx="271.50391"
     cy="-16.499998"
     r="0.75"
     id="circle446"
     transform="rotate(90)"
     style="fill:#8493ad" />
  <circle
     cx="271.50391"
     cy="-1.5"
     r="0.75"
     id="circle448"
     transform="rotate(90)"
     style="fill:#8493ad" />
  <circle
     cx="286.50391"
     cy="-76.500008"
     r="0.75"
     id="circle450"
     transform="rotate(90)"
     style="fill:#8493ad" />
  <circle
     cx="286.50391"
     cy="-61.500008"
     r="0.75"
     id="circle452"
     transform="rotate(90)"
     style="fill:#8493ad" />
  <circle
     cx="286.49991"
     cy="-46.500008"
     id="ellipse454"
     r="1.5"
     transform="rotate(90)"
     style="fill:#8493ad" />
  <circle
     cx="286.50391"
     cy="-31.499998"
     r="0.75"
     id="circle456"
     transform="rotate(90)"
     style="fill:#8493ad" />
  <circle
     cx="286.50391"
     cy="-16.499998"
     r="0.75"
     id="circle458"
     transform="rotate(90)"
     style="fill:#8493ad" />
  <circle
     cx="286.50391"
     cy="-1.5"
     r="0.75"
     id="circle460"
     transform="rotate(90)"
     style="fill:#8493ad" />
  <circle
     cx="301.50391"
     cy="-76.500008"
     r="0.75"
     id="circle462"
     transform="rotate(90)"
     style="fill:#8493ad" />
  <circle
     cx="301.50391"
     cy="-61.500004"
     r="0.75"
     id="circle464"
     transform="rotate(90)"
     style="fill:#8493ad" />
  <circle
     cx="301.49991"
     cy="-46.500004"
     id="ellipse466"
     r="1.5"
     transform="rotate(90)"
     style="fill:#8493ad" />
  <circle
     cx="301.50391"
     cy="-31.499998"
     r="0.75"
     id="circle468"
     transform="rotate(90)"
     style="fill:#8493ad" />
  <circle
     cx="301.50391"
     cy="-16.499998"
     r="0.75"
     id="circle470"
     transform="rotate(90)"
     style="fill:#8493ad" />
  <circle
     cx="301.49991"
     cy="-1.5"
     id="ellipse472"
     r="1.5"
     transform="rotate(90)"
     style="fill:#8493ad" />
  <circle
     cx="316.49991"
     cy="-61.500004"
     id="ellipse474"
     r="1.5"
     transform="rotate(90)"
     style="fill:#8493ad" />
  <circle
     cx="316.50391"
     cy="-46.500004"
     r="0.75"
     id="circle476"
     transform="rotate(90)"
     style="fill:#8493ad" />
  <circle
     cx="316.50391"
     cy="-31.499998"
     r="0.75"
     id="circle478"
     transform="rotate(90)"
     style="fill:#8493ad" />
  <circle
     cx="316.49991"
     cy="-16.499998"
     id="ellipse480"
     r="1.5"
     transform="rotate(90)"
     style="fill:#8493ad" />
  <circle
     cx="316.49991"
     cy="-1.5"
     id="ellipse482"
     r="1.5"
     transform="rotate(90)"
     style="fill:#8493ad" />
  <circle
     cx="331.49991"
     cy="-76.500008"
     id="ellipse484"
     r="1.5"
     transform="rotate(90)"
     style="fill:#8493ad" />
  <circle
     cx="331.49991"
     cy="-61.500008"
     id="ellipse486"
     r="1.5"
     transform="rotate(90)"
     style="fill:#8493ad" />
  <circle
     cx="331.50391"
     cy="-46.500008"
     r="0.75"
     id="circle488"
     transform="rotate(90)"
     style="fill:#8493ad" />
  <circle
     cx="331.50391"
     cy="-31.499998"
     r="0.75"
     id="circle490"
     transform="rotate(90)"
     style="fill:#8493ad" />
  <circle
     cx="331.49991"
     cy="-16.499998"
     id="ellipse492"
     r="1.5"
     transform="rotate(90)"
     style="fill:#8493ad" />
  <circle
     cx="331.50391"
     cy="-1.5"
     r="0.75"
     id="circle494"
     transform="rotate(90)"
     style="fill:#8493ad" />
  <circle
     cx="346.50391"
     cy="-76.500008"
     r="0.75"
     id="circle496"
     transform="rotate(90)"
     style="fill:#8493ad" />
  <circle
     cx="346.49991"
     cy="-61.500008"
     id="ellipse498"
     r="1.5"
     transform="rotate(90)"
     style="fill:#8493ad" />
  <circle
     cx="346.50391"
     cy="-46.500008"
     r="0.75"
     id="circle500"
     transform="rotate(90)"
     style="fill:#8493ad" />
  <circle
     cx="346.50391"
     cy="-31.499998"
     r="0.75"
     id="circle502"
     transform="rotate(90)"
     style="fill:#8493ad" />
  <circle
     cx="346.50391"
     cy="-16.499998"
     r="0.75"
     id="circle504"
     transform="rotate(90)"
     style="fill:#8493ad" />
  <circle
     cx="346.50391"
     cy="-1.5"
     r="0.75"
     id="circle506"
     transform="rotate(90)"
     style="fill:#8493ad" />
  <circle
     cx="361.50391"
     cy="-46.500008"
     r="0.75"
     id="circle508"
     transform="rotate(90)"
     style="fill:#8493ad" />
  <circle
     cx="361.50391"
     cy="-31.499998"
     r="0.75"
     id="circle510"
     transform="rotate(90)"
     style="fill:#8493ad" />
  <circle
     cx="361.50391"
     cy="-16.499998"
     r="0.75"
     id="circle512"
     transform="rotate(90)"
     style="fill:#8493ad" />
  <circle
     cx="361.49991"
     cy="-1.5"
     id="ellipse514"
     r="1.5"
     transform="rotate(90)"
     style="fill:#8493ad" />
  <circle
     cx="376.50391"
     cy="-16.499998"
     r="0.75"
     id="circle516"
     transform="rotate(90)"
     style="fill:#8493ad" />
  <circle
     cx="376.50391"
     cy="-1.5"
     r="0.75"
     id="circle518"
     transform="rotate(90)"
     style="fill:#8493ad" />
</svg>
