<svg width="40" height="40" viewBox="0 0 40 40" fill="none" xmlns="http://www.w3.org/2000/svg">
<path d="M0.493896 12.9951H9.08573V39.9963H0.493896V12.9951Z" fill="white"/>
<path d="M37.2898 15.4628C35.4857 13.4002 33.0979 12.3711 30.1306 12.3711C29.0367 12.3711 28.0408 12.512 27.1469 12.7939C26.253 13.0757 25.4979 13.4686 24.8816 13.981C24.2653 14.4892 23.7755 14.9632 23.4122 15.3987C23.0653 15.813 22.7265 16.2955 22.3959 16.8421V12.9946H13.8285L13.853 14.3013C13.8694 15.1724 13.8775 17.8627 13.8775 22.3679C13.8775 26.8731 13.8612 32.749 13.8245 39.9957H22.3918V24.9301C22.3918 24.0034 22.4857 23.2689 22.6775 22.7223C23.0408 21.7957 23.5918 21.0185 24.3306 20.395C25.0694 19.7673 25.9836 19.4555 27.0775 19.4555C28.5714 19.4555 29.6694 19.9979 30.3714 21.0783C31.0734 22.1586 31.4245 23.6533 31.4245 25.5621V40H40V24.5201C40 20.5445 39.0979 17.5254 37.2898 15.4628Z" fill="white"/>
<path d="M4.8449 0C3.40408 0 2.23673 0.439842 1.34286 1.31953C0.444898 2.20348 0 3.31376 0 4.65891C0 5.98271 0.432653 7.09299 1.30204 7.98121C2.17143 8.86944 3.31429 9.31782 4.73878 9.31782H4.79184C6.24898 9.31782 7.42857 8.87371 8.32245 7.98121C9.21633 7.09299 9.65306 5.98271 9.63673 4.65891C9.62041 3.31376 9.17551 2.20348 8.3102 1.31953C7.44082 0.439842 6.28571 0 4.8449 0Z" fill="white"/>
</svg>
