<?xml version="1.0" encoding="UTF-8" standalone="no"?>
<!-- Created with Inkscape (http://www.inkscape.org/) -->

<svg
   xmlns:dc="http://purl.org/dc/elements/1.1/"
   xmlns:cc="http://creativecommons.org/ns#"
   xmlns:rdf="http://www.w3.org/1999/02/22-rdf-syntax-ns#"
   xmlns:svg="http://www.w3.org/2000/svg"
   xmlns="http://www.w3.org/2000/svg"
   xmlns:xlink="http://www.w3.org/1999/xlink"
   xmlns:sodipodi="http://sodipodi.sourceforge.net/DTD/sodipodi-0.dtd"
   xmlns:inkscape="http://www.inkscape.org/namespaces/inkscape"
   width="14.044083mm"
   height="14.04541mm"
   viewBox="0 0 14.044083 14.04541"
   version="1.1"
   id="svg4139"
   inkscape:version="0.92.3 (unknown)"
   sodipodi:docname="node5.svg">
  <defs
     id="defs4133">
    <filter
       style="color-interpolation-filters:sRGB"
       id="filter1_d"
       x="1411.11"
       y="221.312"
       width="34.1772"
       height="29.806299"
       filterUnits="userSpaceOnUse">
      <feFlood
         flood-opacity="0"
         result="BackgroundImageFix"
         id="feFlood146" />
      <feColorMatrix
         in="SourceAlpha"
         type="matrix"
         values="0 0 0 0 0 0 0 0 0 0 0 0 0 0 0 0 0 0 127 0"
         id="feColorMatrix148" />
      <feOffset
         dy="1"
         id="feOffset150" />
      <feGaussianBlur
         stdDeviation="0.5"
         id="feGaussianBlur152" />
      <feColorMatrix
         type="matrix"
         values="0 0 0 0 0.0749306 0 0 0 0 0.12325 0 0 0 0 0.216667 0 0 0 0.5 0"
         id="feColorMatrix154" />
      <feBlend
         mode="normal"
         in2="BackgroundImageFix"
         result="effect1_dropShadow"
         id="feBlend156" />
      <feBlend
         mode="normal"
         in="SourceGraphic"
         in2="effect1_dropShadow"
         result="shape"
         id="feBlend158" />
    </filter>
    <linearGradient
       id="paint4_linear"
       x1="1423.39"
       y1="246.05499"
       x2="1433.03"
       y2="250.185"
       gradientUnits="userSpaceOnUse">
      <stop
         stop-color="#EEF2FA"
         id="stop256" />
      <stop
         offset="1"
         stop-color="#94A4BD"
         id="stop258" />
    </linearGradient>
    <linearGradient
       id="paint5_linear"
       x1="1443.64"
       y1="240.358"
       x2="1414.6"
       y2="222.28999"
       gradientUnits="userSpaceOnUse">
      <stop
         stop-color="#485776"
         id="stop261" />
      <stop
         offset="1"
         stop-color="#131F37"
         id="stop263" />
    </linearGradient>
    <linearGradient
       id="paint6_linear"
       x1="1412.12"
       y1="241.401"
       x2="1444.25"
       y2="241.401"
       gradientUnits="userSpaceOnUse">
      <stop
         stop-color="#EEF2FA"
         id="stop266" />
      <stop
         offset="1"
         stop-color="#C3D0E4"
         id="stop268" />
    </linearGradient>
    <linearGradient
       id="paint7_linear"
       x1="1428.1899"
       y1="241.931"
       x2="1428.1899"
       y2="247.90601"
       gradientUnits="userSpaceOnUse">
      <stop
         offset="0.1655"
         stop-color="#EEF2FA"
         id="stop271" />
      <stop
         offset="0.6766"
         stop-color="#C3D0E4"
         id="stop273" />
      <stop
         offset="1"
         stop-color="#94A4BD"
         id="stop275" />
    </linearGradient>
    <linearGradient
       id="paint8_linear"
       x1="1413.96"
       y1="230.175"
       x2="1442.42"
       y2="230.175"
       gradientUnits="userSpaceOnUse">
      <stop
         stop-color="#7889A8"
         id="stop278" />
      <stop
         offset="1"
         stop-color="#5E7297"
         id="stop280" />
    </linearGradient>
    <linearGradient
       inkscape:collect="always"
       xlink:href="#paint4_linear"
       id="linearGradient4764"
       gradientUnits="userSpaceOnUse"
       x1="1423.39"
       y1="246.05499"
       x2="1433.03"
       y2="250.185" />
    <linearGradient
       inkscape:collect="always"
       xlink:href="#paint5_linear"
       id="linearGradient4766"
       gradientUnits="userSpaceOnUse"
       x1="1443.64"
       y1="240.358"
       x2="1414.6"
       y2="222.28999" />
    <linearGradient
       inkscape:collect="always"
       xlink:href="#paint6_linear"
       id="linearGradient4768"
       gradientUnits="userSpaceOnUse"
       x1="1412.12"
       y1="241.401"
       x2="1444.25"
       y2="241.401" />
    <linearGradient
       inkscape:collect="always"
       xlink:href="#paint7_linear"
       id="linearGradient4770"
       gradientUnits="userSpaceOnUse"
       x1="1428.1899"
       y1="241.931"
       x2="1428.1899"
       y2="247.90601" />
    <linearGradient
       inkscape:collect="always"
       xlink:href="#paint8_linear"
       id="linearGradient4772"
       gradientUnits="userSpaceOnUse"
       x1="1413.96"
       y1="230.175"
       x2="1442.42"
       y2="230.175" />
    <linearGradient
       inkscape:collect="always"
       xlink:href="#paint4_linear"
       id="linearGradient4774"
       gradientUnits="userSpaceOnUse"
       x1="1423.39"
       y1="246.05499"
       x2="1433.03"
       y2="250.185" />
    <linearGradient
       inkscape:collect="always"
       xlink:href="#paint5_linear"
       id="linearGradient4776"
       gradientUnits="userSpaceOnUse"
       x1="1443.64"
       y1="240.358"
       x2="1414.6"
       y2="222.28999" />
    <linearGradient
       inkscape:collect="always"
       xlink:href="#paint6_linear"
       id="linearGradient4778"
       gradientUnits="userSpaceOnUse"
       x1="1412.12"
       y1="241.401"
       x2="1444.25"
       y2="241.401" />
    <linearGradient
       inkscape:collect="always"
       xlink:href="#paint7_linear"
       id="linearGradient4780"
       gradientUnits="userSpaceOnUse"
       x1="1428.1899"
       y1="241.931"
       x2="1428.1899"
       y2="247.90601" />
    <linearGradient
       inkscape:collect="always"
       xlink:href="#paint8_linear"
       id="linearGradient4782"
       gradientUnits="userSpaceOnUse"
       x1="1413.96"
       y1="230.175"
       x2="1442.42"
       y2="230.175" />
  </defs>
  <sodipodi:namedview
     id="base"
     pagecolor="#ffffff"
     bordercolor="#666666"
     borderopacity="1.0"
     inkscape:pageopacity="0.0"
     inkscape:pageshadow="2"
     inkscape:zoom="0.35"
     inkscape:cx="-359.17428"
     inkscape:cy="77.971074"
     inkscape:document-units="mm"
     inkscape:current-layer="layer1"
     showgrid="false"
     fit-margin-top="0"
     fit-margin-left="0"
     fit-margin-right="0"
     fit-margin-bottom="0"
     inkscape:window-width="1920"
     inkscape:window-height="1052"
     inkscape:window-x="0"
     inkscape:window-y="0"
     inkscape:window-maximized="1" />
  <metadata
     id="metadata4136">
    <rdf:RDF>
      <cc:Work
         rdf:about="">
        <dc:format>image/svg+xml</dc:format>
        <dc:type
           rdf:resource="http://purl.org/dc/dcmitype/StillImage" />
        <dc:title></dc:title>
      </cc:Work>
    </rdf:RDF>
  </metadata>
  <g
     inkscape:label="Layer 1"
     inkscape:groupmode="layer"
     id="layer1"
     transform="translate(-60.25772,-155.41777)">
    <path
       inkscape:connector-curvature="0"
       style="fill:#00e0ca;stroke-width:0.26458332"
       d="m 67.279762,169.46318 c 3.878791,0 7.022041,-3.14431 7.022041,-7.02284 0,-3.87852 -3.14325,-7.02257 -7.022041,-7.02257 -3.878792,0 -7.022042,3.14405 -7.022042,7.02257 0,3.87853 3.14325,7.02284 7.022042,7.02284 z"
       id="path24" />
    <g
       transform="matrix(0.26458333,0,0,0.26458333,-310.68811,100.38444)"
       style="filter:url(#filter1_d)"
       id="g36">
      <path
         style="fill:url(#linearGradient4764)"
         inkscape:connector-curvature="0"
         d="m 1431.82,247.094 h -7.24 c -0.57,0 -1.01,0.445 -1.01,1.012 0,0.567 0.44,1.012 1.01,1.012 h 7.24 c 0.57,0 1.02,-0.445 1.02,-1.012 -0.05,-0.567 -0.49,-1.012 -1.02,-1.012 z"
         id="path26" />
      <path
         style="fill:url(#linearGradient4766)"
         inkscape:connector-curvature="0"
         d="m 1444.25,223.173 c 0,-1.052 -0.85,-1.861 -1.86,-1.861 h -28.38 c -1.05,0 -1.86,0.85 -1.86,1.861 v 16.231 h 32.14 v -16.231 z"
         id="path28" />
      <path
         style="fill:url(#linearGradient4768)"
         inkscape:connector-curvature="0"
         d="m 1412.11,239.364 v 2.185 c 0,1.053 0.85,1.862 1.86,1.862 h 28.38 c 1.05,0 1.86,-0.85 1.86,-1.862 v -2.185 z"
         id="path30" />
      <path
         style="fill:url(#linearGradient4770)"
         inkscape:connector-curvature="0"
         d="m 1431.01,243.411 h -5.62 v 3.683 h 5.62 z"
         id="path32" />
      <path
         style="fill:url(#linearGradient4772)"
         inkscape:connector-curvature="0"
         d="m 1440.65,237.38 h -24.9 c -0.97,0 -1.78,-0.809 -1.78,-1.781 v -10.887 c 0,-0.972 0.81,-1.781 1.78,-1.781 h 24.9 c 0.97,0 1.78,0.809 1.78,1.781 v 10.887 c 0,1.012 -0.81,1.781 -1.78,1.781 z"
         id="path34" />
    </g>
    <path
       id="path4750"
       d="m 67.279762,169.46318 c 3.878791,0 7.022041,-3.14431 7.022041,-7.02284 0,-3.87852 -3.14325,-7.02257 -7.022041,-7.02257 -3.878792,0 -7.022042,3.14405 -7.022042,7.02257 0,3.87853 3.14325,7.02284 7.022042,7.02284 z"
       style="fill:#00e0ca;stroke-width:0.26458332"
       inkscape:connector-curvature="0" />
    <g
       id="g4762"
       style="filter:url(#filter1_d)"
       transform="matrix(0.26458333,0,0,0.26458333,-310.68811,100.38444)">
      <path
         id="path4752"
         d="m 1431.82,247.094 h -7.24 c -0.57,0 -1.01,0.445 -1.01,1.012 0,0.567 0.44,1.012 1.01,1.012 h 7.24 c 0.57,0 1.02,-0.445 1.02,-1.012 -0.05,-0.567 -0.49,-1.012 -1.02,-1.012 z"
         inkscape:connector-curvature="0"
         style="fill:url(#linearGradient4774)" />
      <path
         id="path4754"
         d="m 1444.25,223.173 c 0,-1.052 -0.85,-1.861 -1.86,-1.861 h -28.38 c -1.05,0 -1.86,0.85 -1.86,1.861 v 16.231 h 32.14 v -16.231 z"
         inkscape:connector-curvature="0"
         style="fill:url(#linearGradient4776)" />
      <path
         id="path4756"
         d="m 1412.11,239.364 v 2.185 c 0,1.053 0.85,1.862 1.86,1.862 h 28.38 c 1.05,0 1.86,-0.85 1.86,-1.862 v -2.185 z"
         inkscape:connector-curvature="0"
         style="fill:url(#linearGradient4778)" />
      <path
         id="path4758"
         d="m 1431.01,243.411 h -5.62 v 3.683 h 5.62 z"
         inkscape:connector-curvature="0"
         style="fill:url(#linearGradient4780)" />
      <path
         id="path4760"
         d="m 1440.65,237.38 h -24.9 c -0.97,0 -1.78,-0.809 -1.78,-1.781 v -10.887 c 0,-0.972 0.81,-1.781 1.78,-1.781 h 24.9 c 0.97,0 1.78,0.809 1.78,1.781 v 10.887 c 0,1.012 -0.81,1.781 -1.78,1.781 z"
         inkscape:connector-curvature="0"
         style="fill:url(#linearGradient4782)" />
    </g>
  </g>
</svg>
