<svg width="40" height="40" viewBox="0 0 40 40" fill="none" xmlns="http://www.w3.org/2000/svg">
<path d="M10 22.8545C10 24.431 11.1184 25.7136 12.502 25.7136C13.8816 25.7136 15.0041 24.4356 15.0041 22.8545C15.0041 21.2733 13.8816 19.9953 12.502 19.9953C11.1184 19.9953 10 21.2733 10 22.8545ZM25 22.8545C25 24.431 26.1184 25.7136 27.502 25.7136C28.8857 25.7136 30.0041 24.4356 30.0041 22.8545C30.0041 21.2733 28.8816 19.9953 27.502 19.9953C26.1224 19.9953 25 21.2733 25 22.8545ZM25.1224 28.9552C25.7673 28.3769 26.698 28.5028 27.2082 29.2397C27.7143 29.9767 27.6041 31.0401 26.9592 31.6231C25.1673 33.2369 22.4367 34.2817 20 34.2817C17.5633 34.2817 14.8327 33.2369 13.0408 31.6231C12.3959 31.0448 12.2857 29.9767 12.7918 29.2397C13.298 28.5028 14.2327 28.3769 14.8776 28.9552C15.9102 29.8834 17.951 30.8862 20 30.8862C22.049 30.8862 24.0898 29.8881 25.1224 28.9552ZM40 17.1409C40 13.9832 37.7633 11.4272 35 11.4272C33.1184 11.4272 31.4857 12.6119 30.6327 14.3657C28.0612 12.7565 24.9306 11.7211 21.5184 11.4832L24.502 3.82929L30.2122 5.71362C30.7265 7.37873 32.1143 8.57276 33.7469 8.57276C35.8163 8.57276 37.498 6.65578 37.498 4.28638C37.498 1.91698 35.8204 0 33.7469 0C32.3184 0 31.0776 0.914179 30.4449 2.25746L24.0816 0.158582C23.3673 -0.0746271 22.6163 0.326492 22.3143 1.10075L18.2612 11.5019C14.9347 11.7677 11.8857 12.7985 9.36735 14.3703C8.51429 12.6213 6.87755 11.4319 4.99592 11.4319C2.23673 11.4272 0 13.9832 0 17.1409C0 19.4776 1.22449 21.4832 2.98367 22.3694C2.66939 23.4422 2.49796 24.5616 2.49796 25.7136C2.49796 33.6007 10.3347 40 20 40C29.6653 40 37.502 33.6054 37.502 25.7136C37.502 24.5616 37.3347 23.4422 37.0163 22.3694C38.7755 21.4785 40 19.4729 40 17.1409ZM33.751 2.67724C34.5265 2.67724 35.1592 3.39552 35.1592 4.28638C35.1592 5.17724 34.5306 5.89552 33.751 5.89552C32.9714 5.89552 32.3429 5.17724 32.3429 4.28638C32.3429 3.39552 32.9755 2.67724 33.751 2.67724ZM2.50204 17.1409C2.50204 15.5644 3.62449 14.2817 5.00408 14.2817C6 14.2817 6.86122 14.9534 7.26531 15.9188C5.95918 17.0522 4.87755 18.3582 4.07347 19.7901C3.15102 19.3657 2.50204 18.3396 2.50204 17.1409ZM20 36.5998C11.9755 36.5998 5.46939 31.7211 5.46939 25.709C5.46939 19.6968 11.9755 14.8181 20 14.8181C28.0245 14.8181 34.5306 19.6968 34.5306 25.709C34.5306 31.7211 28.0245 36.5998 20 36.5998ZM35.9306 19.7901C35.1306 18.3582 34.0449 17.0522 32.7388 15.9188C33.1388 14.9534 34.0041 14.2817 35 14.2817C36.3796 14.2817 37.502 15.5644 37.502 17.1409C37.502 18.3396 36.849 19.3657 35.9306 19.7901Z" fill="white"/>
</svg>
