<svg width="40" height="40" viewBox="0 0 40 40" fill="none" xmlns="http://www.w3.org/2000/svg">
<path d="M19.9264 11.2278C5.47202 19.319 -0.100668 22.4799 0.00137384 22.5194C0.0719865 22.5506 2.82302 23.1061 6.10835 23.7555C9.39367 24.4048 12.1447 24.9526 12.2153 24.9761C12.3488 25.0151 12.357 25.4613 12.3725 32.5037L12.3961 40L17.6623 35.3209C20.5627 32.7467 22.9439 30.6418 22.9676 30.6418C22.9913 30.6495 25.695 32.7544 28.9803 35.329C32.2656 37.9032 34.9616 40.0004 34.9775 39.9927C35.0089 39.9691 40.0159 0.0154533 40 1.14441e-05C39.9926 -0.00852203 30.9538 5.04643 19.9264 11.2278ZM34.7893 5.22645C34.7501 5.2813 31.3938 9.75722 27.3146 15.1641C20.3978 24.3426 19.7456 25.25 17.4113 28.732L14.9117 32.4643L14.888 28.7161L14.8721 24.968L24.8309 15.0544C30.317 9.59265 34.8048 5.13258 34.8207 5.13258C34.8363 5.13258 34.8207 5.17931 34.7893 5.22645Z" fill="white"/>
</svg>
