<svg width="48" height="48" viewBox="0 0 48 48" fill="none" xmlns="http://www.w3.org/2000/svg">
<path fill-rule="evenodd" clip-rule="evenodd" d="M36.0019 19.3799C33.7928 19.3799 32.0019 21.1707 32.0019 23.3799C32.0019 25.589 33.7928 27.3799 36.0019 27.3799C38.2111 27.3799 40.0019 25.589 40.0019 23.3799C40.0019 21.1707 38.2111 19.3799 36.0019 19.3799ZM30.0019 23.3799C30.0019 20.0662 32.6882 17.3799 36.0019 17.3799C39.3157 17.3799 42.0019 20.0662 42.0019 23.3799C42.0019 25.5127 40.8891 27.3856 39.2125 28.4496C43.1639 29.7203 46.0019 33.5368 46.0019 37.9999H44.0019C44.0019 33.5443 40.5348 29.9999 36.3319 29.9999C33.6266 29.9999 31.2279 31.4667 29.8555 33.7147L28.1484 32.6726C29.2834 30.8135 30.9987 29.3615 33.0359 28.5967C31.2238 27.5642 30.0019 25.6147 30.0019 23.3799Z" fill="#C3D0E4"/>
<path fill-rule="evenodd" clip-rule="evenodd" d="M17 10C13.4101 10 10.5 12.9101 10.5 16.5C10.5 20.0899 13.4101 23 17 23C20.5899 23 23.5 20.0899 23.5 16.5C23.5 12.9101 20.5899 10 17 10ZM8.5 16.5C8.5 11.8056 12.3056 8 17 8C21.6944 8 25.5 11.8056 25.5 16.5C25.5 20.0567 23.3156 23.1031 20.2151 24.3709C26.3976 25.8236 31 31.3741 31 38H29C29 31.3723 23.6277 26 17 26C10.3723 26 5 31.3723 5 38H3C3 31.3741 7.60239 25.8236 13.7849 24.3709C10.6844 23.1031 8.5 20.0567 8.5 16.5Z" fill="white"/>
</svg>
