<svg width="40" height="40" viewBox="0 0 40 40" fill="none" xmlns="http://www.w3.org/2000/svg">
<path d="M38.9592 1.97105C38.9592 1.97105 37.7837 2.59157 36.9673 2.9363C36.1551 3.28104 35.0612 3.63037 35.0612 3.63037C35.0612 3.63037 30.751 -2.47372 24.4939 1.14828C18.2327 4.77029 20.2571 12.9336 20.2571 12.9336C20.2571 12.9336 14.9143 13.145 8.59184 9.45407C2.26939 5.76312 0.734694 2.4261 0.734694 2.4261C0.734694 2.4261 -0.244898 4.41636 0.183673 8.10731C0.612245 11.7983 3.63265 16.551 3.63265 16.551L0 14.8549C0 14.8549 0.183673 17.1991 1.59592 19.6122C3.00816 22.0254 7.97959 25.0774 7.97959 25.0774L3.25306 25.1464C3.25306 25.1464 3.68163 26.2817 5.4 28.1984C7.11837 30.1151 11.9061 31.8204 11.9061 31.8204C11.9061 31.8204 8.53878 34.5461 6.19592 35.5849C3.85306 36.6237 0.183673 36.8673 0.183673 36.8673C0.183673 36.8673 5.65306 40.8065 14.0571 39.8504C22.4571 38.8897 28.2408 34.3484 32.7143 26.7827C37.1918 19.2169 36.7633 9.38512 36.7633 9.38512C36.7633 9.38512 37.2531 8.73243 38.4408 7.473C39.6327 6.20898 40 5.59305 40 5.59305L37.0286 5.95617L38.9592 1.97105Z" fill="white"/>
</svg>
