<svg width="48" height="48" viewBox="0 0 48 48" fill="none" xmlns="http://www.w3.org/2000/svg">
<path d="M39.3077 22.5684C38.7291 22.5684 38.2662 23.0316 38.2662 23.6105V23.8C37.9085 23.5895 37.5297 23.4 37.1405 23.2421L36.4671 20.2105C35.8885 17.6211 33.637 15.8105 30.9753 15.8105H16.9826C14.3314 15.8105 12.0694 17.6211 11.4908 20.2105L10.8175 23.2421C10.4282 23.4 10.0494 23.5895 9.69174 23.8V23.6105C9.69174 23.0316 9.22883 22.5684 8.65018 22.5684H4V23.8105C4 24.3895 4.46291 24.8526 5.04156 24.8526H8.33456C7.13519 26 6.29353 27.5158 6.00947 29.2632L5.33614 33.2632C5.1152 34.5684 5.48343 35.8842 6.33561 36.8947C6.49342 37.0842 6.67228 37.2316 6.86165 37.3895C6.86165 37.4 6.85113 37.4105 6.85113 37.4211V40.8526C6.85113 41.4842 7.36665 42 7.9979 42H10.2809C10.9122 42 11.4277 41.4842 11.4277 40.8526V38.4737H36.5618V40.8526C36.5618 41.4842 37.0773 42 37.7086 42H39.9916C40.6228 42 41.1383 41.4842 41.1383 40.8526V37.4211C41.1383 37.4105 41.1278 37.4 41.1278 37.3895C41.3067 37.2316 41.4961 37.0842 41.6539 36.8947C42.5061 35.8842 42.8743 34.5684 42.6533 33.2632L41.9905 29.2737C41.6959 27.5263 40.8543 26.0105 39.6654 24.8632H42.9584C43.5371 24.8632 44 24.4 44 23.8211V22.5789H39.3077V22.5684ZM13.1215 22.6632L13.5634 20.6632C13.9211 19.0421 15.3414 17.9053 16.9932 17.9053H30.9858C32.6481 17.9053 34.0579 19.0421 34.4156 20.6632L34.8574 22.6632H13.1215ZM39.8443 29.4316H34.2683C33.0058 29.4316 31.9853 30.4526 31.9853 31.7158H40.2441L40.5597 33.6105C40.6754 34.3053 40.4861 35 40.0337 35.5368C39.718 35.9053 39.2972 36.1579 38.8343 36.2842H37.6981C37.5402 36.2842 37.393 36.3158 37.2562 36.3789H10.7228C10.586 36.3158 10.4387 36.2842 10.2809 36.2842H9.14466C8.68175 36.1579 8.26092 35.9053 7.94529 35.5368C7.4929 35 7.30352 34.3053 7.41925 33.6105L7.73488 31.7158H15.9937C15.9937 30.4526 14.9732 29.4316 13.7107 29.4316H8.13467C8.68175 26.7263 11.0279 24.7684 13.8054 24.7684H34.1736C36.9616 24.7684 39.3077 26.7158 39.8443 29.4316Z" fill="white"/>
<path d="M27.9874 34H19.9916C19.3603 34 18.8448 34.5158 18.8448 35.1474V36.2947H29.1236V35.1474C29.1341 34.5158 28.6186 34 27.9874 34Z" fill="white"/>
<path d="M25.0416 2H22.9374V8.85263H25.0416V2Z" fill="white"/>
<path d="M10.4881 8.14043L9.00008 9.62906L12.3701 13.0013L13.8581 11.5127L10.4881 8.14043Z" fill="white"/>
<path d="M37.4946 8.13769L34.1246 11.5094L35.6124 12.9981L38.9824 9.62632L37.4946 8.13769Z" fill="white"/>
</svg>
