<svg width="40" height="40" viewBox="0 0 40 40" fill="none" xmlns="http://www.w3.org/2000/svg">
<path d="M13.0411 0.11092C8.61819 0.277657 5.61736 0.533279 4.64062 0.833633C3.17163 1.30072 1.87448 2.72465 1.25693 4.54828C0.374066 7.17364 0.0850853 10.4102 0.0144727 18.507C-0.0324663 23.4788 0.029983 26.2146 0.272433 29.7404C0.592843 34.5345 1.50713 37.1366 3.31204 38.4048C4.77327 39.4389 6.50798 39.6614 14.9946 39.9287C21.8085 40.1402 31.3265 39.8619 34.5302 39.3506C36.4996 39.0392 38.0077 37.638 38.742 35.4245C39.289 33.8007 39.5392 32.31 39.7188 29.5743C39.9375 26.3598 40 24.169 40 20.0088C40 10.7663 39.5702 6.27257 38.4526 3.81453C37.8118 2.40222 36.5302 1.17872 35.3424 0.822594C33.1473 0.177731 21.3709 -0.200474 13.0411 0.11092ZM21.3162 15.4488C24.2387 17.6175 26.6065 19.4307 26.5754 19.4638C26.513 19.5527 15.9403 27.3498 15.8856 27.3498C15.8701 27.3498 15.8542 23.7681 15.8542 19.386C15.8542 14.2474 15.8774 11.4443 15.9321 11.4669C15.9713 11.478 18.4015 13.2795 21.3162 15.4488Z" fill="#FEFEFE"/>
</svg>
